<?xml version="1.0" encoding="utf-8"?>
<!-- Generator: Adobe Illustrator 24.0.1, SVG Export Plug-In . SVG Version: 6.00 Build 0)  -->
<svg version="1.1" id="ffe6bee8-e793-4e33-a4ab-3e285c6a5a44"
	 xmlns="http://www.w3.org/2000/svg" xmlns:xlink="http://www.w3.org/1999/xlink" x="0px" y="0px" viewBox="0 0 999 834"
	 style="enable-background:new 0 0 999 834;" xml:space="preserve">
<style type="text/css">
	.st0{opacity:0.1;fill:#0073AA;enable-background:new    ;}
	.st1{opacity:0.1;enable-background:new    ;}
	.st2{fill:#0073AA;}
	.st3{fill:#FFD037;}
	.st4{fill:#65617D;}
	.st5{fill:#9D9CB5;}
	.st6{fill:#FFFFFF;stroke:#3F3D56;stroke-width:0.5925;stroke-miterlimit:10;}
	.st7{fill:none;stroke:#3F3D56;stroke-width:0.7351;stroke-miterlimit:10;}
	.st8{fill:none;stroke:#3F3D56;stroke-width:0.5925;stroke-miterlimit:10;}
	.st9{fill:#F2F2F2;}
	.st10{fill:#3F3D56;}
	.st11{fill:#FFB8B8;}
	.st12{fill:#2F2E41;}
	.st13{fill:#F86D70;}
	.st14{fill:none;stroke:#535461;stroke-width:2.352;stroke-miterlimit:10;}
	.st15{opacity:0.25;enable-background:new    ;}
	.st16{fill:#B77B7F;}
	.st17{fill:#DDA2A6;}
</style>
<path class="st0" d="M711.3,130.4c-6.5,33.6,32.2,62.9,64.9,78.1c31.7,14.7,67.3,21.8,102.4,29c23.8,4.9,48.2,10.1,68.5,21.7
	c49.2,28,61.9,88,42.1,135.3c-19.9,47.3-65.3,83.6-113.5,112.9C765.7,574.1,634.6,613.1,501,630.8c-47.8,6.3-96.5,10-144.6,5.5
	c-67.5-6.4-131.6-28.6-191-56.4c-33.4-15.6-66-33.2-92.8-56.2c-78.9-67.5-95.8-181-39-262.9c27.9-40.2,70.2-71.7,113.1-100.9
	C265.4,79.2,402.6,7.8,554.6,0.5c48.4-2.3,101.5,3.7,135.4,33C723.8,62.8,718.2,94.4,711.3,130.4z"/>
<title>blank canvas</title>
<path class="st1" d="M693.1,344c-2.1-6,4.3-9.8,4.3-9.8S695.2,350,693.1,344z"/>
<path class="st1" d="M691.2,324.7c0.8-4.8,6.7-8,6.7-8S690.5,329.4,691.2,324.7z"/>
<path class="st2" d="M889,637.9c13,0.4,28.9,26.9,28.9,26.9c3.5-8.9-5.2-21-15.8-35.2c-10.6-14.3-3.3-23.8-3.3-23.8
	C884.6,621.8,876,637.5,889,637.9z"/>
<path class="st1" d="M889,637.9c13,0.4,28.9,26.9,28.9,26.9c0.2-0.4,0.3-0.8,0.4-1.2c-3.3-5.1-16.9-25.4-28.2-25.7
	c-12.2-0.3-5.4-14.2,7.2-29.1c0.3-1.1,0.8-2.1,1.5-3C884.6,621.8,876,637.6,889,637.9z"/>
<path class="st3" d="M886.2,598.6c0.5,0,0.9-1.5,0.9,1.8s-0.4,6-0.8,6s-0.8-2.7-0.8-6C885.4,597,885.7,598.6,886.2,598.6z"/>
<path class="st3" d="M879.6,602.9c0.2-0.4-0.9-1.6,2,0c2.9,1.6,5.1,3.2,4.9,3.6c-0.2,0.4-2.8-0.6-5.7-2.2
	C877.9,602.7,879.4,603.3,879.6,602.9z"/>
<path class="st2" d="M947,637.9c-13,0.4-29,26.9-29,26.9c-3.5-8.9,5.2-21,15.8-35.2s3.3-23.8,3.3-23.8
	C951.4,621.8,960,637.5,947,637.9z"/>
<path class="st1" d="M947,637.9c-13,0.4-29,26.9-29,26.9c-0.1-0.4-0.3-0.8-0.4-1.2c3.2-5.1,16.9-25.4,28.2-25.7
	c12.2-0.3,5.4-14.2-7.2-29.1c-0.3-1.1-0.8-2.1-1.5-3C951.4,621.8,960,637.6,947,637.9z"/>
<path class="st3" d="M949.8,598.6c-0.5,0-0.9-1.5-0.9,1.8s0.4,6,0.8,6s0.8-2.7,0.8-6C950.5,597,950.3,598.6,949.8,598.6z"/>
<path class="st3" d="M956.4,602.9c-0.2-0.4,0.9-1.6-2,0c-2.9,1.6-5.1,3.2-4.9,3.6s2.8-0.6,5.7-2.2
	C958.1,602.7,956.6,603.3,956.4,602.9z"/>
<ellipse class="st0" cx="918" cy="725.6" rx="75.7" ry="11.6"/>
<path class="st4" d="M887.2,647.6h61.5c4.7,0,8.5,2,8.2,4.4l-0.4,3l-0.5,4.2l-0.2,1.7l-0.5,4.2l-0.2,1.7l-0.5,4.2l-5.8,47.5
	c-0.5,4.2-7.4,7.5-15.8,7.5h-30c-8.4,0-15.3-3.3-15.8-7.5l-5.8-47.4l-0.5-4.2l-0.2-1.7l-0.5-4.2l-0.2-1.7l-0.5-4.2l-0.4-3
	C878.8,649.6,882.5,647.6,887.2,647.6z"/>
<polygon class="st5" points="956.6,655 956.1,659.2 879.9,659.2 879.4,655 "/>
<polygon class="st5" points="955.8,660.9 955.3,665.1 880.6,665.1 880.1,660.9 "/>
<polygon class="st5" points="955.1,666.8 954.6,671 881.4,671 880.9,666.8 "/>
<circle class="st0" cx="819" cy="124.5" r="31.5"/>
<ellipse transform="matrix(5.530039e-02 -0.9985 0.9985 5.530039e-02 786.5771 930.3873)" class="st0" cx="885" cy="49.5" rx="19.5" ry="19.5"/>
<circle class="st0" cx="987" cy="93" r="12"/>
<rect x="0.4" y="60.9" class="st6" width="497.7" height="323.5"/>
<rect x="55.5" y="117.6" class="st7" width="412.2" height="55.1"/>
<rect x="26.3" y="128.3" class="st2" width="412.2" height="55.1"/>
<circle class="st2" cx="11.6" cy="71.5" r="4.1"/>
<circle class="st2" cx="25.9" cy="71.5" r="4.1"/>
<circle class="st2" cx="40.1" cy="71.5" r="4.1"/>
<line class="st8" x1="0.4" y1="78.8" x2="498.1" y2="78.8"/>
<circle class="st8" cx="12.8" cy="69.7" r="4.1"/>
<circle class="st8" cx="27" cy="69.7" r="4.1"/>
<circle class="st8" cx="41.3" cy="69.7" r="4.1"/>
<rect x="75.1" y="229.3" class="st9" width="134.1" height="11.9"/>
<rect x="285.8" y="229.3" class="st9" width="134.1" height="11.9"/>
<rect x="82.4" y="223.3" class="st7" width="134.1" height="11.9"/>
<rect x="75.1" y="321.1" class="st9" width="134.1" height="11.9"/>
<rect x="82.4" y="315.2" class="st7" width="134.1" height="11.9"/>
<rect x="75.5" y="274" class="st9" width="344.8" height="11.9"/>
<rect x="82.8" y="269.3" class="st7" width="344.8" height="11.9"/>
<rect x="293.1" y="223.3" class="st7" width="134.1" height="11.9"/>
<g>
	<polygon class="st10" points="697.3,528 593,358.5 617.6,344 708.9,520.8 	"/>
	<path class="st2" d="M761.8,572.2c-21.7,19.1-42.3,13.2-55.4,5.5c-11.7-6.7-19.5-18.8-20.6-32.2c-0.6-9.3,2-19.7,13.7-26.8
		c13.2-8.1,24.1-3.9,31.8,2.2c7,5.8,11.3,14.2,11.8,23.3c1.9,28.3,18.7,15.1,18.7,15.1C774.8,557.7,761.8,572.2,761.8,572.2z"/>
	<circle class="st11" cx="600.4" cy="105.3" r="35.2"/>
	<path class="st11" d="M570.8,116.4c1.9,11.1-9.3,59.2-9.3,59.2s55.5,13,51.8,3.7s5.6-57.4,5.6-57.4S568.9,105.3,570.8,116.4z"/>
	<polygon class="st11" points="655.3,295.1 652.2,329.3 642.9,405.1 652.2,438.4 657.9,417 676.2,338.5 679.9,288.5 	"/>
	<path class="st11" d="M508.4,288.5l8.7,61.1c0,0-3.7,83.3-14.8,66.6c-11.1-16.7-16.7-83.3-16.7-83.3v-51.8L508.4,288.5z"/>
	<path class="st12" d="M500.4,438.4c-22.2,7.4-25.9,153.6-25.9,153.6s0,120.3-1.9,125.8s-1.9,11.1,1.9,18.5
		c3.7,7.4,3.7,7.4,1.9,11.1c-1.9,3.7-1.9,14.8,0,22.2c1.9,7.4,46.3,0,46.3,0l-1.9-13c0,0,9.3-85.1,14.8-99.9
		c5.6-14.8,5.6-46.3,5.6-46.3l29.6-68.5c9.3,18.5,9.3,159.2,13,188.8c3.7,29.6,3.7,22.2,3.7,22.2c-5.6,0-1.9,25.9,0,31.5
		c1.9,5.6,11.1,3.7,31.5,1.9s13-25.9,13-25.9c24.1,0,13-81.4,20.4-194.3s-1.9-124-1.9-124S522.6,431,500.4,438.4z"/>
	<path class="st12" d="M591.1,782.7c-5.6,0-12,19.4-10.2,25c1.9,5.6,11.1,1.9,11.1,1.9s27.8,3.7,67.5,0.9c4.6-21.3-18.5-13-18.5-13
		l-14.8-25.9C626.3,771.6,596.7,782.7,591.1,782.7z"/>
	<path class="st12" d="M480.1,766c-5.6,18.5-25.9,22.2-25.9,22.2s-11.1,3.7-9.3,14.8c1.9,11.1,20.4,9.3,24.1,7.4
		c3.7-1.9,53.7-9.3,59.2-11.1s-9.3-35.2-9.3-35.2S485.6,747.5,480.1,766z"/>
	<path class="st13" d="M498.6,203.4c0,0,5.6,75.9,13,98.1s-20.4,140.6-20.4,140.6s74,24.1,99.9,11.1c25.9-13,48.1-1.9,61.1-5.6
		c13-3.7,0-140.6,0-140.6s24.1-90.7,24.1-99.9s-46.3-27.8-57.4-37c-11.1-9.3-61.1,0-61.1,0C530,170.1,498.6,203.4,498.6,203.4z"/>
	<path class="st13" d="M646.6,307c3.7,0,35.2-7.4,46.3-11.1c11.1-3.7-16.7-90.7-16.7-90.7l-13-3.7C663.3,201.6,642.9,307,646.6,307z
		"/>
	<path class="st13" d="M518.9,303.3c0,0-40.7-9.3-50-18.5s29.6-81.4,29.6-81.4l29.6-11.1L518.9,303.3z"/>
	<path class="st12" d="M575.3,70.2c-5.6,5.5-9.8,16.1-10.3,23.8c-0.1,4.9,0.5,9.7,1.8,14.4l7,31.7c0,0,0,0,0,0
		c0,2.6,2.1,4.8,4.8,4.8c8.9,1.5,18.6,2.9,26.6-1.4c2.5-1.5,4.9-3.3,6.9-5.3c5.6-5.2,10.7-11.2,17.5-14.7c3.6-1.9,7.8-3.3,9.8-6.8
		c0.6-1.3,1-2.6,1.2-4c1.8-9.7,0.8-19.8-2.8-29c-0.6-1.6-1.4-3.1-2.3-4.4c-2.1-2.7-5.3-4.2-8.3-5.8c-3.8-2-7.3-4.4-10.7-7.1
		c-1.8-1.7-4-3.1-6.3-4.1c-2.9-0.8-5.9-0.9-8.8-0.4C592.8,62.8,581.9,63.8,575.3,70.2z"/>
	<ellipse class="st2" cx="745.8" cy="807" rx="50.7" ry="2.9"/>
	<ellipse class="st2" cx="808.1" cy="795.4" rx="27.5" ry="1.6"/>
	<ellipse class="st2" cx="709.6" cy="830.2" rx="27.5" ry="1.6"/>
</g>
<path class="st14" d="M31.4,588.5c3.7,8.7,8.2,16.9,13.4,24.8c11,16.4,27,28.6,45.4,34.9c43.7,15.3,72.8,68.2,72.8,68.2"/>
<path class="st2" d="M3.9,578.7c-5-5-5.1-13.2-0.3-18.3c4.8-5.1,12.8-5.2,17.8-0.3c5,5,10.7,28.7,10.7,28.7S8.9,583.7,3.9,578.7
	L3.9,578.7z"/>
<path class="st2" d="M17,621.7L17,621.7c-6.8-1.4-11.2-8.2-9.9-15.2c1.4-7,8-11.6,14.8-10.2c6.8,1.4,24.1,18.1,24.1,18.1
	S23.8,623.1,17,621.7L17,621.7z"/>
<path class="st2" d="M64.8,668.1c-0.2,0.1-0.3,0.1-0.5,0.2c-6.6,2.2-13.7-1.6-15.8-8.4c-2.1-6.8,1.5-14.1,8.1-16.3
	c6.5-2.3,29.7,3.1,29.7,3.1S71.4,665.7,64.8,668.1L64.8,668.1z"/>
<path class="st2" d="M108.7,694.9c-0.1,0-0.2,0-0.2,0c-6.9,1.1-13.3-3.7-14.4-10.8c-1.1-7.1,3.6-13.7,10.5-14.8
	c6.9-1.2,28.8,8.2,28.8,8.2S115.6,693.7,108.7,694.9L108.7,694.9z"/>
<path class="st2" d="M65.4,595.9c0-7.1-5.6-12.9-12.6-12.9c-6.9,0-12.6,5.8-12.6,12.9c0,7.1,12.6,27.9,12.6,27.9
	S65.4,603,65.4,595.9L65.4,595.9z"/>
<path class="st2" d="M116.3,627.8c2.1-6.8-1.6-14.1-8.2-16.2c-6.6-2.1-13.7,1.7-15.8,8.5c-2.1,6.8,3.9,30.5,3.9,30.5
	S114.3,634.6,116.3,627.8L116.3,627.8z"/>
<path class="st2" d="M150.9,651.3c-6.9-1-13.2,4-14.1,11.1c-0.9,7.1,8.9,29.4,8.9,29.4s15.2-18.8,16.1-25.9
	C162.6,658.8,157.8,652.3,150.9,651.3z"/>
<path class="st15" d="M3.9,578.7c-5-5-5.1-13.2-0.3-18.3c4.8-5.1,12.8-5.2,17.8-0.3c5,5,10.7,28.7,10.7,28.7S8.9,583.7,3.9,578.7
	L3.9,578.7z"/>
<path class="st15" d="M17,621.7L17,621.7c-6.8-1.4-11.2-8.2-9.9-15.2c1.4-7,8-11.6,14.8-10.2c6.8,1.4,24.1,18.1,24.1,18.1
	S23.8,623.1,17,621.7L17,621.7z"/>
<path class="st15" d="M64.8,668.1c-0.2,0.1-0.3,0.1-0.5,0.2c-6.6,2.2-13.7-1.6-15.8-8.4c-2.1-6.8,1.5-14.1,8.1-16.3
	c6.5-2.3,29.7,3.1,29.7,3.1S71.4,665.7,64.8,668.1L64.8,668.1z"/>
<path class="st15" d="M108.7,694.9c-0.1,0-0.2,0-0.2,0c-6.9,1.1-13.3-3.7-14.4-10.8c-1.1-7.1,3.6-13.7,10.5-14.8
	c6.9-1.2,28.8,8.2,28.8,8.2S115.6,693.7,108.7,694.9L108.7,694.9z"/>
<path class="st15" d="M65.4,595.9c0-7.1-5.6-12.9-12.6-12.9c-6.9,0-12.6,5.8-12.6,12.9c0,7.1,12.6,27.9,12.6,27.9
	S65.4,603,65.4,595.9L65.4,595.9z"/>
<path class="st15" d="M116.3,627.8c2.1-6.8-1.6-14.1-8.2-16.2c-6.6-2.1-13.7,1.7-15.8,8.5c-2.1,6.8,3.9,30.5,3.9,30.5
	S114.3,634.6,116.3,627.8L116.3,627.8z"/>
<path class="st15" d="M150.9,651.3c-6.9-1-13.2,4-14.1,11.1c-0.9,7.1,8.9,29.4,8.9,29.4s15.2-18.8,16.1-25.9
	C162.6,658.8,157.8,652.3,150.9,651.3z"/>
<path class="st14" d="M91.4,543.5c0,9.5,0.8,18.9,2.5,28.2c3.6,19.6,13.4,37.4,27.7,50.8c34,32.2,39.7,92.7,39.7,92.7"/>
<path class="st2" d="M69.8,522.6c-2.4-6.7,0.9-14.2,7.4-16.7c6.5-2.5,13.8,0.9,16.2,7.6c2.6,6.6-1.5,30.7-1.5,30.7
	s-19.2-14.4-21.8-21C70,523,69.9,522.8,69.8,522.6z"/>
<path class="st2" d="M62.1,549.9c4-5.8,11.8-7.3,17.5-3.1c5.6,4.1,14.9,26.6,14.9,26.6s-23.7-1.3-29.4-5.5
	C59.5,563.8,58.1,555.7,62.1,549.9z"/>
<path class="st2" d="M90.7,630.3c-6.9-0.6-12.1-6.9-11.5-14c0.6-7.1,6.7-12.4,13.6-11.8c6.9,0.6,25.9,15.2,25.9,15.2
	S97.6,630.9,90.7,630.3L90.7,630.3z"/>
<path class="st2" d="M120.2,673.1c-0.2,0-0.3-0.1-0.5-0.1c-6.7-1.9-10.6-9.1-8.7-16c1.9-6.9,8.8-10.9,15.5-9
	c6.7,1.8,23.1,19.5,23.1,19.5S126.9,674.9,120.2,673.1L120.2,673.1z"/>
<path class="st2" d="M119.6,564.5c2.6-6.4-0.2-13.8-6.3-16.7c-6.3-3-13.8-0.2-16.7,6.3c-2.8,6.5,0.5,30.7,0.5,30.7
	S116.8,571,119.6,564.5L119.6,564.5z"/>
<path class="st2" d="M153.5,614.9c0.1-0.1,0.2-0.2,0.3-0.3c4.5-5.5,3.8-13.6-1.5-18.2c-5.3-4.6-13.2-4-17.7,1.5
	c-4.6,5.4-8.4,29.5-8.4,29.5S149,620.3,153.5,614.9L153.5,614.9z"/>
<path class="st2" d="M180,668.6L180,668.6c3.6-6.1,1.8-14.1-4.1-17.8s-13.7-1.8-17.3,4.3c-3.7,6.1-3.5,30.5-3.5,30.5
	S176.4,674.7,180,668.6L180,668.6z"/>
<ellipse class="st0" cx="251.8" cy="707.1" rx="141.8" ry="23.8"/>
<polygon class="st16" points="257.3,392.6 257.5,397.9 264.1,682.5 250.6,682.5 242.5,397.9 242.4,393.3 "/>
<polygon class="st17" points="165,620.8 328.6,620.8 332.9,634 324.9,634 174.1,634.3 163.9,634.3 "/>
<polygon class="st1" points="257.3,392.6 257.5,397.9 242.5,397.9 242.4,393.3 "/>
<rect x="236.6" y="386.3" class="st16" width="25.1" height="9.5"/>
<polygon class="st1" points="328.6,620.8 332.9,634 324.9,634 323.6,620.8 "/>
<polygon class="st17" points="315.5,386.5 315.8,390.2 351.1,719.5 335.8,720.3 302.3,390.2 301.9,386.1 "/>
<polygon class="st1" points="167.6,620.8 177.8,620.8 176.4,634.3 166.6,634.3 "/>
<polygon class="st17" points="183.1,390.2 183.5,386.5 197.1,386.1 196.6,390.2 163.2,720.3 147.9,719.5 "/>
<path class="st17" d="M253.2,6.5c0.2-3.6,3.2-6.5,6.9-6.3c3.6,0.2,6.5,3.2,6.3,6.9v23.5h-13.2V7.1C253.2,6.9,253.2,6.7,253.2,6.5z"
	/>
<rect x="253.2" y="23.5" class="st1" width="13.2" height="7.1"/>
<path class="st17" d="M251.3,25.6h17.1c0,0,0,0,0,0c1.8,0,3.2,1.4,3.2,3.2v25.8h-23.5V28.8C248.1,27.1,249.5,25.6,251.3,25.6z"/>
<circle class="st1" cx="259.8" cy="42" r="5"/>
<circle class="st16" cx="259.8" cy="41" r="5"/>
<rect x="248.1" y="51.5" class="st1" width="23.5" height="3.2"/>
<rect x="238.4" y="55.8" class="st1" width="42.8" height="7.1"/>
<rect x="238.4" y="53.6" class="st17" width="42.8" height="7.1"/>
<path class="st1" d="M345.9,384.3v1.7l0,0H150.7l0,0v-1.7c0-4.3,3.5-7.8,7.8-7.8h179.7C342.5,376.5,345.9,380,345.9,384.3z"/>
<polygon class="st1" points="315.8,390.2 302.3,390.2 301.9,386.1 315.5,386.5 "/>
<rect x="236.6" y="386.3" class="st1" width="25.1" height="3.9"/>
<polygon class="st1" points="183.5,386.5 197.1,386.1 196.6,390.2 183.1,390.2 "/>
<path class="st17" d="M345.9,386.4v1.7l0,0H150.7l0,0v-1.7c0-4.3,3.5-7.8,7.8-7.8h179.7C342.5,378.6,345.9,382.1,345.9,386.4z"/>
<ellipse class="st0" cx="390.2" cy="757.8" rx="34.5" ry="6.7"/>
<ellipse class="st0" cx="36" cy="785.2" rx="34.5" ry="6.7"/>
<ellipse class="st0" cx="226.8" cy="827.1" rx="33.9" ry="6.6"/>
</svg>
