<?xml version="1.0" encoding="utf-8"?>
<!-- Generator: Adobe Illustrator 24.0.1, SVG Export Plug-In . SVG Version: 6.00 Build 0)  -->
<svg version="1.1" id="e557b204-1bfc-4f91-8d35-03414f04ca70"
	 xmlns="http://www.w3.org/2000/svg" xmlns:xlink="http://www.w3.org/1999/xlink" x="0px" y="0px" viewBox="0 0 949 836.1"
	 style="enable-background:new 0 0 949 836.1;" xml:space="preserve">
<style type="text/css">
	.st0{fill:#EFEFEF;}
	.st1{fill:#3F3D56;}
	.st2{fill:#0073AA;}
	.st3{fill:#2F2E41;}
	.st4{fill:#A0616A;}
	.st5{fill:#F86D70;}
</style>
<title>site_content</title>
<polygon class="st0" points="214,269.2 27,269.2 27,146.2 198.9,146.2 "/>
<circle class="st1" cx="141.5" cy="184" r="17"/>
<path class="st1" d="M189,111.4c1.6-1.8,3.3-3.6,5-5.4l1.8,1.7c-1.7,1.7-3.3,3.5-4.9,5.3L189,111.4z"/>
<path class="st1" d="M204.7,95.7c3.7-3.3,7.6-6.5,11.6-9.5l1.5,1.9c-3.9,2.9-7.8,6.1-11.4,9.3L204.7,95.7z M228.6,77.7
	c4.2-2.6,8.6-5.1,13-7.4l1.1,2.2c-4.4,2.2-8.7,4.7-12.8,7.3L228.6,77.7z M255.1,64c4.6-1.9,9.3-3.6,14-5.2l0.7,2.3
	c-4.7,1.5-9.3,3.2-13.8,5.1L255.1,64z M284.1,57.2l-0.6-2.4c4.8-1.1,9.8-2.1,14.7-2.8l0.4,2.4C293.8,55.2,288.9,56.1,284.1,57.2z
	 M313.3,52.8l-0.2-2.4c5-0.3,10-0.5,14.9-0.4l0,2.4C323.1,52.4,318.2,52.5,313.3,52.8L313.3,52.8z M342.8,53.3l0.2-2.4
	c4.9,0.5,9.9,1.2,14.8,2.1l-0.4,2.4C352.6,54.5,347.6,53.8,342.8,53.3L342.8,53.3z M433.9,373.8c3.9-3,7.7-6.2,11.3-9.4l1.6,1.8
	c-3.7,3.3-7.5,6.6-11.5,9.6L433.9,373.8z M371.8,58.6l0.6-2.3c4.8,1.3,9.6,2.8,14.3,4.5l-0.8,2.3C381.2,61.4,376.5,59.9,371.8,58.6z
	 M455.8,354c3.3-3.6,6.6-7.3,9.6-11.2l1.9,1.5c-3.1,3.9-6.4,7.7-9.8,11.3L455.8,354z M399.5,68.7l1-2.2c4.5,2.1,9,4.3,13.3,6.8
	l-1.2,2.1C408.4,73,404,70.7,399.5,68.7z M474.1,330.9c2.7-4.1,5.3-8.3,7.7-12.6l2.1,1.2c-2.4,4.3-5,8.6-7.8,12.8L474.1,330.9z
	 M425.2,83.1l1.4-2c4.1,2.8,8.2,5.8,12,8.9l-1.5,1.9C433.3,88.8,429.3,85.8,425.2,83.1z M488.3,305.1c2-4.5,3.9-9.1,5.5-13.7
	l2.3,0.8c-1.7,4.7-3.5,9.3-5.6,13.9L488.3,305.1z M448.2,101.5l1.7-1.8c3.6,3.4,7.1,7,10.4,10.7l-1.8,1.6
	C455.2,108.4,451.8,104.9,448.2,101.5z M498.2,277.3c1.3-4.7,2.3-9.6,3.2-14.4l2.4,0.4c-0.9,4.9-2,9.8-3.2,14.6L498.2,277.3z
	 M467.9,123.5l1.9-1.5c3,4,5.9,8.1,8.5,12.3l-2.1,1.3C473.7,131.4,470.8,127.4,467.9,123.5z M503.4,248.3c0.5-4.9,0.7-9.8,0.8-14.7
	l2.4,0c-0.1,5-0.3,10-0.8,14.9L503.4,248.3z M483.7,148.3l2.2-1.1c2.3,4.4,4.4,8.9,6.4,13.5l-2.2,0.9
	C488.1,157.2,485.9,152.7,483.7,148.3L483.7,148.3z M503.7,218.8c-0.4-4.9-0.9-9.8-1.7-14.7l2.4-0.4c0.8,4.9,1.3,9.9,1.7,14.9
	L503.7,218.8z M495.1,175.5l2.3-0.8c1.5,4.7,2.9,9.6,4.1,14.4l-2.4,0.6C498,184.9,496.7,180.1,495.1,175.5L495.1,175.5z"/>
<path class="st1" d="M415.5,386.2c2.1-1.2,4.2-2.5,6.2-3.8l1.3,2c-2.1,1.3-4.2,2.6-6.3,3.8L415.5,386.2z"/>
<polygon class="st2" points="27,230.7 64.3,193.5 98,227.2 162,163.2 214.5,216.7 214.5,269.2 27,269.2 "/>
<path class="st1" d="M637,523.2v241h310v-241H637z M906.5,587.7h-24v-24h24V587.7z"/>
<rect x="135" y="478.2" class="st1" width="20" height="26"/>
<rect x="439" y="642.2" transform="matrix(0.7071 -0.7071 0.7071 0.7071 -328.7911 510.6388)" class="st1" width="26" height="20"/>
<rect x="380" y="188.2" transform="matrix(0.7071 -0.7071 0.7071 0.7071 -25.0453 335.946)" class="st1" width="26" height="20"/>
<path class="st1" d="M660,686.4c-1.1,2.2-2.3,4.3-3.5,6.5l-2.1-1.2c1.2-2.1,2.3-4.2,3.4-6.4L660,686.4z"/>
<path class="st1" d="M648.7,755.7c-2.8,4.1-5.8,8.2-8.9,12l-1.9-1.5c3.1-3.8,6-7.8,8.8-11.9L648.7,755.7z M630,778.9
	c-3.4,3.6-7,7.1-10.7,10.4l-1.6-1.8c3.7-3.3,7.2-6.7,10.6-10.3L630,778.9z M607.7,798.8c-4,3-8.1,5.8-12.3,8.5l-1.3-2.1
	c4.1-2.6,8.2-5.4,12.1-8.4L607.7,798.8z M581.3,812.6l1.1,2.2c-4.4,2.3-9,4.5-13.5,6.4l-0.9-2.2C572.4,817,576.9,814.9,581.3,812.6z
	 M554.1,824.1l0.8,2.3c-4.7,1.6-9.6,2.9-14.4,4.1l-0.6-2.4C544.7,827,549.5,825.6,554.1,824.1L554.1,824.1z M525.5,831l0.4,2.4
	c-4.9,0.8-9.9,1.3-14.9,1.6l-0.2-2.4C515.7,832.3,520.6,831.7,525.5,831L525.5,831z M357.5,543.2c-3,3.8-5.9,7.9-8.6,12l-2-1.3
	c2.7-4.1,5.7-8.2,8.7-12.1L357.5,543.2z M496,833l0,2.4c-5-0.1-10-0.3-14.9-0.8l0.2-2.4C486.2,832.7,491.1,832.9,496,833z
	 M341.3,567.8c-2.4,4.3-4.6,8.7-6.5,13.2l-2.2-1c2-4.5,4.3-9,6.6-13.4L341.3,567.8z M466.7,830.2l-0.4,2.4c-4.9-0.9-9.8-2-14.6-3.3
	l0.6-2.3C457,828.2,461.9,829.3,466.7,830.2L466.7,830.2z M329.3,594.7c-1.6,4.6-3.1,9.4-4.3,14.1l-2.4-0.6
	c1.3-4.8,2.7-9.6,4.4-14.3L329.3,594.7z M438.2,822.6l-0.8,2.3c-4.7-1.7-9.3-3.5-13.9-5.6l1-2.2C429,819.1,433.6,821,438.2,822.6z
	 M321.9,623.2c-0.8,4.8-1.5,9.7-1.9,14.6l-2.4-0.2c0.5-4.9,1.1-9.9,2-14.8L321.9,623.2z M411.3,810.5l-1.2,2.1
	c-4.3-2.4-8.6-5-12.8-7.8l1.4-2C402.8,805.5,407,808.1,411.3,810.5z M319.2,652.6c0,4.9,0.1,9.9,0.5,14.7l-2.4,0.2
	c-0.4-4.9-0.5-10-0.5-14.9L319.2,652.6z M386.8,794.1l-1.5,1.9c-3.9-3.1-7.7-6.4-11.3-9.8l1.7-1.8
	C379.2,787.8,383,791.1,386.8,794.1z M321.4,682c0.8,4.8,1.7,9.7,2.9,14.5L322,697c-1.2-4.8-2.2-9.8-3-14.7L321.4,682z M365.4,773.9
	l-1.8,1.6c-3.3-3.7-6.5-7.6-9.5-11.5l1.9-1.5C358.9,766.5,362.1,770.3,365.4,773.9z M328.4,710.6c1.6,4.6,3.3,9.3,5.3,13.8l-2.2,1
	c-2-4.6-3.8-9.3-5.3-14L328.4,710.6z M347.5,750.5l-2,1.3c-2.7-4.2-5.2-8.5-7.5-12.9l2.1-1.1C342.4,742,344.9,746.3,347.5,750.5z"/>
<path class="st1" d="M372.3,526.6c-1.7,1.7-3.4,3.4-5,5.2l-1.8-1.7c1.7-1.8,3.4-3.6,5.1-5.3L372.3,526.6z"/>
<path class="st1" d="M900.1,535.7c-0.2-0.4-5.6-9.4-7.5-28.2c-1.7-17.2-0.6-46.2,14.4-86.7c28.5-76.7-6.6-138.5-6.9-139.1l1.7-1
	c0.1,0.2,9.1,15.9,14.5,41c7.1,33.3,4.5,67.9-7.4,99.8c-28.5,76.5-7.3,112.8-7.1,113.1L900.1,535.7z"/>
<circle class="st2" cx="889" cy="264.2" r="13"/>
<circle class="st1" cx="930" cy="312.2" r="13"/>
<circle class="st2" cx="902" cy="344.2" r="13"/>
<circle class="st2" cx="936" cy="371.2" r="13"/>
<circle class="st1" cx="892" cy="413.2" r="13"/>
<path class="st1" d="M908,536.2c0,0-13-32,26-56L908,536.2z"/>
<path class="st1" d="M892,535.6c0,0-5.9-34-51.7-33.7L892,535.6z"/>
<path class="st3" d="M478.5,788.8c-6.6,0-12-5.4-12-12s5.4-12,12-12s12,5.4,12,12C490.5,783.4,485.1,788.8,478.5,788.8z
	 M478.5,766.8c-5.5,0-10,4.5-10,10s4.5,10,10,10s10-4.5,10-10C488.5,771.3,484,766.8,478.5,766.8z"/>
<path class="st1" d="M610.3,145.1h-19.7v-19.7h19.7V145.1z M592.1,143.6h16.7v-16.7h-16.7V143.6z"/>
<path class="st3" d="M72,696.2l-13.5-14.4l14.4-13.5l13.5,14.4L72,696.2z M60.6,681.8L72,694l12.2-11.4l-11.4-12.2L60.6,681.8z"/>
<polygon class="st0" points="602.1,565.3 244.3,565.3 244.3,420.9 541.9,420.9 "/>
<path class="st1" d="M603.7,566.4H200.5V389.2h330.1l0.3,0.7L603.7,566.4z M202.7,564.2h397.8l-71.3-172.9H202.7V564.2z"/>
<rect x="303.4" y="443.9" class="st2" width="178.4" height="16.4"/>
<rect x="303.4" y="477.8" class="st2" width="178.4" height="16.4"/>
<rect x="303.4" y="511.7" class="st2" width="178.4" height="16.4"/>
<path class="st1" d="M299.4,293.2H0v-182h232.7l0.2,0.7L299.4,293.2z M2,291.2h294.6l-65.3-178H2V291.2z"/>
<path class="st1" d="M215,270.2H26v-141h189V270.2z M28,268.2h185v-137H28V268.2z"/>
<circle class="st2" cx="298" cy="292.2" r="18"/>
<circle class="st2" cx="600" cy="566.2" r="18"/>
<circle class="st4" cx="729.1" cy="239.7" r="30.3"/>
<path class="st4" d="M708.3,254.3c0,0,10.1,22.7-3.8,31.6s22.7,45.4,22.7,45.4l40.4-42.9c0,0-21.5-13.9-17.7-36.6L708.3,254.3z"/>
<path class="st4" d="M638.8,350.2l-8.8,50.5c0,0-15.1,30.3-15.1,56.8c0,26.5-2.5,31.6-2.5,31.6s-25.2,50.5-7.6,53
	s25.2-51.7,25.2-51.7s24-59.3,24-78.2l16.4-41.6L638.8,350.2z"/>
<path class="st4" d="M821.8,352.7l2.5,44.2c0,0,8.8,22.7,2.5,63.1l-5,39.1c0,0,11.4,44.2,0,45.4s-25.2-27.8-17.7-44.2v-13.9
	c0,0-7.6-59.3-5-69.4l-8.8-48L821.8,352.7z"/>
<polygon class="st4" points="657.8,702.3 670.4,735.1 698.2,730 680.5,694.7 "/>
<polygon class="st4" points="777.7,728.8 773.9,776.7 805.4,776.7 804.2,735.1 "/>
<path class="st3" d="M678,441l-3.8,18.9c0,0-7.6,6.3-7.6,12.6s-2.5,8.8-2.5,8.8s-1.3,0-2.5,2.5c-0.7,1.4-1.5,2.7-2.5,3.8
	c0,0-74.5,75.7-58.1,113.6s48,114.8,48,114.8s36.6-11.4,36.6-20.2l-35.3-99.7l70.7-73.2l56.8,77c0,0-11.4,135-3.8,136.3
	s49.2,10.1,50.5,6.3s7.6-171.6,5-177.9s-39.1-82-39.1-82s6.3-7.6,2.5-10.1s-10.1-26.5-10.1-26.5S684.3,429.7,678,441z"/>
<path class="st5" d="M732.2,299.7L706.8,284c0,0-14.9,0.5-18.7,4.3s-26.5,13.9-26.5,13.9s5,151.4,15.1,146.4s2.5-8.8,10.1-5
	s97.2,5,98.4,5s2.5-2.5,2.5-2.5l5-77l16.4-64.4l-48.6-22.3L732.2,299.7z"/>
<path class="st5" d="M671.7,300.9h-10.1c0,0-13.9,3.8-20.2,24s-8.8,29-6.3,31.6s36.6,21.5,36.6,21.5V300.9z"/>
<path class="st5" d="M791.5,303.5l17.7,1.3c0,0,22.7,53,16.4,55.5s-42.9,21.5-42.9,17.7S791.5,303.5,791.5,303.5z"/>
<path class="st3" d="M672.9,718.7l-10.3-3.8l-23.8,31.6c0,0-44.2,31.6-3.8,30.3c0,0,31.6-5,34.1-13.9c0,0,36.6-10.1,36.6-16.4
	s-8.4-23.1-11.1-23.6S680.5,727.5,672.9,718.7z"/>
<path class="st3" d="M805.4,762.8c0,0-30.7-0.5-30.5,0.4s-8.6,21.1-7.4,28.6s12.6,17.7,10.1,22.7s7.6,20.2,27.8,21.5
	s17.7-21.5,17.7-21.5l-10.1-24L805.4,762.8z"/>
<path class="st3" d="M710.5,204.7c-1.5,1.3-3.1,2.5-4.7,3.6c-2.1,1.7-4,3.6-5.7,5.7l-2,2.2c-1.7,1.9-3.4,4-3.4,6.5
	c0,0.9,0.3,1.8,0.4,2.7c0.4,3.6-1.8,7.7,0,10.8c0.5,0.9,1.4,1.6,1.9,2.5c0.7,1.1,1.1,2.5,0.9,3.8c2,0.1,3.6-1.7,4.2-3.6
	s0.5-3.9,0.8-5.8s1.1-4,2.9-4.9c3.8-1.9,8.1,3,12.2,1.8c2.8-0.8,4.3-4.3,7.2-4.9c2.1-0.4,4,0.8,6,1.7s4.5,1.3,5.9-0.3
	c0.9-1.1,1-2.8,2.2-3.5c1.4-0.9,3.2,0.3,4.3,1.6s2.3,2.8,3.9,2.8c2.2-0.1,3.9-3,6-2.3c2.4,0.8,1.3,4.6,2.7,6.6
	c1.2,1.7,3.8,1.6,5.9,1.3c1.2,0.1,2.2-0.7,2.3-1.9c0-0.3,0-0.6-0.1-0.9l-0.9-11.6c0-0.8-0.2-1.6-0.5-2.3c-0.6-1.1-1.9-1.7-2.7-2.6
	c-1.8-1.9-1.7-5.3-4-6.8c-1.2-0.7-2.7-0.7-3.8-1.5c-1.5-1-2-2.9-3-4.3c-1.5-2-4.1-3-6.6-3.2s-5,0.1-7.6,0
	c-5.1-0.2-10.2-1.6-15.4-0.8C715.4,197.9,713.6,201.8,710.5,204.7z"/>
</svg>
