<?xml version="1.0" encoding="utf-8"?>
<!-- Generator: Adobe Illustrator 24.0.1, SVG Export Plug-In . SVG Version: 6.00 Build 0)  -->
<svg version="1.1" id="f505141c-f814-4615-8df2-52dee1c7b14b"
	 xmlns="http://www.w3.org/2000/svg" xmlns:xlink="http://www.w3.org/1999/xlink" x="0px" y="0px" viewBox="0 0 1050 805.8"
	 style="enable-background:new 0 0 1050 805.8;" xml:space="preserve">
<style type="text/css">
	.st0{opacity:0.1;fill:#0073AA;enable-background:new    ;}
	.st1{fill:none;stroke:#535461;stroke-width:2;stroke-miterlimit:10;}
	.st2{fill:#0073AA;}
	.st3{opacity:0.1;fill:#FFFFFF;enable-background:new    ;}
	.st4{opacity:0.2;enable-background:new    ;}
	.st5{fill:none;stroke:#0073AA;stroke-miterlimit:10;}
	.st6{opacity:0.5;fill:#FFFFFF;enable-background:new    ;}
	.st7{fill:url(#SVGID_1_);}
	.st8{fill:#FFFFFF;}
	.st9{fill:#EEEEEE;}
	.st10{fill:#FF5252;}
	.st11{fill:#FFFF00;}
	.st12{fill:#69F0AE;}
	.st13{opacity:0.5;fill:#0073AA;enable-background:new    ;}
	.st14{opacity:0.1;}
	.st15{fill:#F4F4F4;}
	.st16{fill:url(#SVGID_2_);}
	.st17{fill:#72351C;}
	.st18{fill:#333333;}
	.st19{fill:#4D8AF0;}
	.st20{fill:#F55F44;}
	.st21{opacity:0.1;enable-background:new    ;}
	.st22{fill:#FDB797;}
	.st23{fill:#F0E4E4;}
	.st24{opacity:0.2;fill:#0073AA;enable-background:new    ;}
	.st25{fill:url(#SVGID_3_);}
	.st26{fill:#565171;}
	.st27{fill:#8F5A6A;}
	.st28{fill:#F86D70;}
	.st29{opacity:0.7;}
	.st30{fill:url(#SVGID_4_);}
	.st31{fill:#E0E0E0;}
	.st32{fill:#535461;}
	.st33{fill:url(#SVGID_5_);}
	.st34{fill:#3E3F49;}
</style>
<title>blogging</title>
<path class="st0" d="M60.4,414c35.7,45.3,21.8,111.5-0.9,164.6c-7.6,17.8-16.2,36.5-13,55.6c3.9,23.3,24.7,40.3,46.5,49.3
	c39.8,16.5,87.4,12.5,123.9-10.2c31.6-19.7,54.2-51.6,86.3-70.3c53.8-31.4,122.2-19.5,180.5,2.1c41.3,15.3,86.5,35.2,127.5,19.2
	c28.9-11.2,48.8-38.6,59.7-67.6c5.2-14,9.1-29.2,19.1-40.3c6-6.6,13.7-11.3,21.7-15.2c72.8-36.1,164.7-16.8,235.3-56.8
	c47.7-27,78.3-78,91.8-131.2c13.5-53.2,12-108.9,8.5-163.6c-2.4-38.9-6.8-80.4-31.7-110.5C989.6,7.3,944.5-4.5,903.7,1.5
	s-77.8,27.6-110.3,52.9c-40.7,31.7-78.4,71.1-128.3,84c-34,8.7-69.8,4-104.8,2.3c-58.6-2.8-117.2,3.4-175.5,10.1
	c-55.8,6.4-112,13.6-165.2,31.7c-37.6,12.8-67.7,36.1-103.3,52.4C93.2,245.5,67.9,248.5,46,262c-27,16.7-51.8,45.6-44.8,79.5
	C7.8,373.8,41.5,390,60.4,414z"/>
<path class="st1" d="M189.8,612.2c0,0-3.3-97.8-56.2-153c-22.2-23.2-36.8-52.6-40.6-84.5c-1.8-15.1-2.2-30.4-1.2-45.6"/>
<path class="st2" d="M58.6,294.2c3.6,10.9,33.9,36,33.9,36s9.3-38.2,5.6-49.1c-3.6-10.9-15.4-16.8-26.3-13.2
	C60.9,271.5,55,283.3,58.6,294.2L58.6,294.2z"/>
<path class="st2" d="M46,365.5c9,7.2,48,11.8,48,11.8S81,340.2,72,333c-9.3-6.8-22.3-4.8-29.1,4.4C36.5,346.2,37.8,358.4,46,365.5z"
	/>
<path class="st2" d="M81.6,468.3c11.4,1.7,47.4-14,47.4-14s-29.9-25.5-41.3-27.2c-11.4-1.7-22,6.2-23.6,17.6S70.3,466.7,81.6,468.3
	L81.6,468.3L81.6,468.3z"/>
<path class="st2" d="M126.2,540.1c10.9,3.6,49.1-5.8,49.1-5.8s-25.2-30.2-36.1-33.8c-10.9-3.6-22.7,2.4-26.3,13.3
	C109.3,524.7,115.2,536.5,126.2,540.1L126.2,540.1z"/>
<path class="st2" d="M136.2,365.6c-5.3,10.2-39.2,30.2-39.2,30.2s-3.1-39.2,2.2-49.4c5.3-10.2,17.9-14.2,28.1-8.9
	S141.5,355.4,136.2,365.6L136.2,365.6z"/>
<path class="st2" d="M187.2,450.2c-8.1,8.1-46.4,17.1-46.4,17.1s8.8-38.3,16.9-46.5c8.1-8.1,21.3-8.2,29.4-0.1
	C195.3,428.9,195.3,442,187.2,450.2L187.2,450.2L187.2,450.2z"/>
<path class="st2" d="M225.5,539.2c-6.6,9.4-42.9,24.7-42.9,24.7s2.2-39.2,8.8-48.7c6.3-9.6,19.2-12.3,28.8-6
	c9.6,6.3,12.3,19.2,6,28.8C226,538.5,225.7,538.8,225.5,539.2L225.5,539.2z"/>
<path class="st2" d="M654.6,545.8c0,0-15.9-5.4-23.5,8.6c-4.1,7.7-4,17,0.3,24.6c5,9.1,15.4,20.8,35,19.8
	c16.6-0.9,22.1-13.6,23.6-25.4c1.9-14.3-8.2-27.3-22.5-29.2c-4.1-0.5-8.2-0.1-12.1,1.3L654.6,545.8z"/>
<path class="st3" d="M634.7,580.3c-4.3-7.6-4.4-16.9-0.3-24.6c7.6-14,23.5-8.6,23.5-8.6l0.8-0.3c6.1-2.2,12.7-2,18.7,0.4
	c-6.6-4-14.7-4.7-22-2.1l-0.8,0.3c0,0-15.9-5.4-23.5,8.6c-4.1,7.7-4,17,0.3,24.6c3.3,6,8.9,13.1,18,17
	C643.2,591.9,638.1,586.6,634.7,580.3z"/>
<path class="st4" d="M646.4,552.6c0,0,5.9,4.6,20.2,0"/>
<path class="st2" d="M645.1,518.9c0,0,10.1,27.3,9.2,34.5l8-0.8c0,0-13.5-24-10.1-33.6L645.1,518.9z"/>
<path class="st4" d="M645.1,518.9c0,0,10.1,27.3,9.2,34.5l8-0.8c0,0-13.5-24-10.1-33.6L645.1,518.9z"/>
<path class="st2" d="M686.3,521.2c0,0-15.9-8.1-23-1.4s-8.2,23.9-8.2,23.9S681,547.2,686.3,521.2z"/>
<path class="st3" d="M686.3,521.2c0,0-15.9-8.1-23-1.4s-8.2,23.9-8.2,23.9S681,547.2,686.3,521.2z"/>
<path class="st5" d="M655.1,543.6c0,0,4.2-19.9,31.2-22.5"/>
<path class="st1" d="M198.6,424.5c0,0,3.2-52.9-22.4-85.3c-10.9-13.6-17-30.3-17.6-47.6c-0.2-8.2,0.4-16.5,1.7-24.6"/>
<path class="st2" d="M144.3,246.4c1.4,6.1,16.4,21.2,16.4,21.2s7-20.1,5.6-26.2c-1.4-6.1-7.4-9.9-13.5-8.5S142.9,240.3,144.3,246.4
	L144.3,246.4z"/>
<path class="st2" d="M133.8,284.1c4.5,4.3,25.3,8.8,25.3,8.8s-5.1-20.7-9.6-25c-4.5-4.3-11.6-4.2-15.9,0.2
	C129.2,272.7,129.3,279.8,133.8,284.1L133.8,284.1z"/>
<path class="st2" d="M147.8,341.4c6,1.5,26.3-5.1,26.3-5.1s-14.8-15.3-20.9-16.8c-6-1.5-12.2,2.2-13.6,8.2
	C138,333.8,141.7,339.9,147.8,341.4L147.8,341.4z"/>
<path class="st2" d="M168.1,382.3c5.7,2.5,26.8-0.6,26.8-0.6s-12-17.6-17.7-20c-5.7-2.6-12.3-0.1-15,5.5c-2.6,5.7-0.1,12.3,5.5,15
	C167.8,382.3,167.9,382.3,168.1,382.3L168.1,382.3z"/>
<path class="st2" d="M182.4,288.9c-3.4,5.2-22.7,14.2-22.7,14.2s0.4-21.3,3.7-26.5c3.4-5.2,10.4-6.7,15.6-3.3
	C184.3,276.7,185.8,283.6,182.4,288.9z"/>
<path class="st2" d="M205.6,337.1c-4.8,4-25.9,6.8-25.9,6.8s6.7-20.2,11.5-24.2c4.8-4,11.9-3.3,15.9,1.5S210.4,333.1,205.6,337.1z"
	/>
<path class="st2" d="M221.6,387c-4,4.7-24.4,11.1-24.4,11.1s3.2-21,7.2-25.8c4.1-4.7,11.2-5.3,15.9-1.2S225.7,382.3,221.6,387
	L221.6,387z"/>
<path class="st6" d="M144.3,246.4c1.4,6.1,16.4,21.2,16.4,21.2s7-20.1,5.6-26.2c-1.4-6.1-7.4-9.9-13.5-8.5S142.9,240.3,144.3,246.4
	L144.3,246.4z"/>
<path class="st6" d="M133.8,284.1c4.5,4.3,25.3,8.8,25.3,8.8s-5.1-20.7-9.6-25c-4.5-4.3-11.6-4.2-15.9,0.2
	C129.2,272.7,129.3,279.8,133.8,284.1L133.8,284.1z"/>
<path class="st6" d="M147.8,341.4c6,1.5,26.3-5.1,26.3-5.1s-14.8-15.3-20.9-16.8c-6-1.5-12.2,2.2-13.6,8.2
	C138,333.8,141.7,339.9,147.8,341.4L147.8,341.4z"/>
<path class="st6" d="M168.1,382.3c5.7,2.5,26.8-0.6,26.8-0.6s-12-17.6-17.7-20c-5.7-2.6-12.3-0.1-15,5.5c-2.6,5.7-0.1,12.3,5.5,15
	C167.8,382.3,167.9,382.3,168.1,382.3L168.1,382.3z"/>
<path class="st6" d="M182.4,288.9c-3.4,5.2-22.7,14.2-22.7,14.2s0.4-21.3,3.7-26.5c3.4-5.2,10.4-6.7,15.6-3.3
	C184.3,276.7,185.8,283.6,182.4,288.9z"/>
<path class="st6" d="M205.6,337.1c-4.8,4-25.9,6.8-25.9,6.8s6.7-20.2,11.5-24.2c4.8-4,11.9-3.3,15.9,1.5S210.4,333.1,205.6,337.1z"
	/>
<path class="st6" d="M221.6,387c-4,4.7-24.4,11.1-24.4,11.1s3.2-21,7.2-25.8c4.1-4.7,11.2-5.3,15.9-1.2S225.7,382.3,221.6,387
	L221.6,387z"/>
<linearGradient id="SVGID_1_" gradientUnits="userSpaceOnUse" x1="756.96" y1="441.65" x2="756.96" y2="785.61" gradientTransform="matrix(1 0 0 -1 0 806)">
	<stop  offset="0" style="stop-color:#808080;stop-opacity:0.25"/>
	<stop  offset="0.54" style="stop-color:#808080;stop-opacity:0.12"/>
	<stop  offset="1" style="stop-color:#808080;stop-opacity:0.1"/>
</linearGradient>
<polygon class="st7" points="504.5,20.4 504.5,37.7 504.5,364.4 1009.4,364.4 1009.4,37.7 1009.4,20.4 "/>
<rect x="512" y="36" class="st8" width="492.1" height="322.1"/>
<rect x="512" y="20.7" class="st9" width="492.1" height="23.7"/>
<circle class="st10" cx="530.7" cy="32.2" r="5.8"/>
<circle class="st11" cx="546.5" cy="32.2" r="5.8"/>
<circle class="st12" cx="562.3" cy="32.2" r="5.8"/>
<rect x="530.8" y="82.3" class="st13" width="183.4" height="7.6"/>
<rect x="530.8" y="97.6" class="st13" width="183.4" height="7.6"/>
<rect x="530.8" y="112.9" class="st13" width="183.4" height="7.6"/>
<rect x="594" y="128.2" class="st13" width="120.2" height="7.6"/>
<rect x="530.8" y="143.5" class="st13" width="96.5" height="7.6"/>
<rect x="582.9" y="158.7" class="st13" width="74.3" height="7.6"/>
<rect x="738.5" y="135.8" class="st13" width="216" height="124.3"/>
<rect x="764.2" y="147.6" class="st9" width="216" height="124.3"/>
<path class="st2" d="M885.1,271.9H764.2v-22.7C793.8,235.4,839.2,227.6,885.1,271.9z"/>
<g class="st14">
	<path d="M978.9,268.7v3.2H828.1v-0.7C828.1,271.2,902.3,199.1,978.9,268.7z"/>
</g>
<path class="st2" d="M980.2,268.7v3.2H829.5v-0.7C829.5,271.2,903.7,199.1,980.2,268.7z"/>
<circle class="st2" cx="789.2" cy="169.9" r="11.1"/>
<path class="st15" d="M883.8,161.4c-1.3,0-2.7,0-3.7,0.1c-0.4,0-0.9,0.1-1.3,0.3l-6.5,2.4c5.3,0.1,10.8,0.1,16.2,0l30.3-0.2
	c3.1,0,6.3-0.1,8.9-0.2c1.7-0.1,3-0.3,4.6-0.4c5.7-0.5,14.1-0.4,21.6-0.4c7.5,0,16.5-0.2,19.1-0.9h-16.1c-1.7,0-3.6,0-5.1-0.1
	c-1.8-0.1-2.9-0.3-4.5-0.4c-2.6-0.2-6.2-0.2-9.5-0.3C919.8,161.1,901.7,161.5,883.8,161.4z"/>
<path class="st15" d="M901.9,174.9c-0.3,0-0.6,0-0.8,0c-0.1,0-0.2,0-0.3,0.1l-1.4,0.5c1.1,0,2.3,0,3.5,0l6.6-0.1
	c0.7,0,1.4,0,1.9-0.1l1-0.1c1.2-0.1,3.1-0.1,4.7-0.1c1.4,0,2.8,0,4.2-0.2h-3.5c-0.4,0-0.8,0-1.1,0s-0.6-0.1-1-0.1
	c-0.6,0-1.3-0.1-2.1-0.1C909.6,174.8,905.7,174.9,901.9,174.9z"/>
<path class="st15" d="M855.3,194.4c-0.3,0-0.6,0-0.8,0c-0.1,0-0.2,0-0.3,0.1l-1.4,0.5c1.1,0,2.3,0,3.5,0l6.6-0.1
	c0.7,0,1.4,0,1.9-0.1l1-0.1c1.2-0.1,3.1-0.1,4.7-0.1c1.4,0,2.8,0,4.2-0.2h-3.5c-0.4,0-0.8,0-1.1,0s-0.6-0.1-1-0.1
	c-0.6,0-1.3-0.1-2.1-0.1C863.1,194.3,859.2,194.4,855.3,194.4z"/>
<path class="st2" d="M829.2,265.8H824c0,0-1.6-57.1,5.2-74.7h1.3C830.5,191,825.9,255.7,829.2,265.8z"/>
<path class="st2" d="M825.6,188.1c0,0-4.2,11.8-2.3,17c0,0,2.9-10.8,6.4-12.4s7,12.4,7,12.4s2-8.8-1.6-16c4.6,2.7,8.3,6.7,10.8,11.4
	c0,0,0.7-4.9-7.8-15c0,0,7.5,2,12.4,6.5c0,0,1.6-3.6-8.5-9.5c0,0,1.3-4.2,9.1-2.3c0,0,0-5.6-12.4-4.6c0,0,0-3.6,8.2-2.9
	c0,0,0-4.6-9.5-2.9c0,0,2-2.9,3.3-3.6c-1.6-0.2-3.3,0.3-4.6,1.3c0,0,0.3-5.9-4.6-8.2l-0.7,8.2c0,0-5.5-6.5-4.2-5.2
	c0.8,2,1.1,4.1,1,6.2c0,0-5.5-4.6-12.4,0.3c0,0,8.5,0.6,9.8,3.6c0,0-7.2-1.3-8.8-0.3c0,0,5.5,2,5.2,3.3c0,0-9.8,0-11.1,3.6
	c0,0,10.1,1.3,10.8,2.3c0,0-11.8,8.5-12.4,10.8c0,0,12.1-7.2,14-7.2s-8.8,10.4-8.2,13.1C814.5,197.9,823.3,187.4,825.6,188.1z"/>
<path class="st2" d="M893.6,263.7h4c0,0,1.2-43.6-4-57.1h-1C892.6,206.5,896.1,255.9,893.6,263.7z"/>
<path class="st2" d="M896.3,204.3c0,0,3.2,9,1.8,13c0,0-2.2-8.2-4.9-9.5s-5.4,9.5-5.4,9.5s-1.5-6.7,1.2-12.2
	c-3.5,2.1-6.4,5.1-8.2,8.7c0,0-0.5-3.7,6-11.5c0,0-5.7,1.5-9.5,5c0,0-1.2-2.7,6.5-7.2c0,0-1-3.2-7-1.8c0,0,0-4.2,9.5-3.5
	c0,0,0-2.7-6.2-2.2c0,0,0-3.5,7.2-2.2c-0.7-1-1.5-2-2.5-2.7c1.2-0.1,2.5,0.2,3.5,1c0,0-0.2-4.5,3.5-6.2l0.5,6.2c0,0,4.2-4.9,3.2-4
	c-0.6,1.5-0.9,3.1-0.8,4.7c0,0,4.2-3.5,9.5,0.2c0,0-6.5,0.5-7.5,2.7c0,0,5.5-1,6.7-0.2c0,0-4.2,1.5-4,2.5c0,0,7.5,0,8.5,2.7
	c0,0-7.7,1-8.2,1.8c0,0,9,6.5,9.5,8.2c0,0-9.2-5.5-10.7-5.5s6.7,8,6.2,10C904.8,211.8,898.1,203.8,896.3,204.3z"/>
<path class="st2" d="M941.3,255.1h2.5c0,0,0.8-27-2.5-35.4h-0.6C940.7,219.8,942.9,250.3,941.3,255.1z"/>
<path class="st2" d="M943,218.4c0,0,2,5.6,1.1,8c0,0-1.4-5.1-3-5.9s-3.3,5.9-3.3,5.9c-0.5-2.5-0.2-5.2,0.8-7.6
	c-2.2,1.3-3.9,3.2-5.1,5.4c0,0-0.3-2.3,3.7-7.1c-2.2,0.6-4.2,1.7-5.9,3.1c0,0-0.8-1.7,4-4.5c0,0-0.6-2-4.3-1.1c0,0,0-2.6,5.9-2.2
	c0,0,0-1.7-3.9-1.4c0,0,0-2.2,4.5-1.4c-0.4-0.6-0.9-1.2-1.5-1.7c0.8-0.1,1.5,0.2,2.2,0.6c-0.1-1.6,0.8-3.1,2.2-3.9l0.3,3.9
	c0,0,2.6-3.1,2-2.5c-0.4,0.9-0.5,1.9-0.5,2.9c1.8-1.3,4.2-1.2,5.9,0.1c0,0-4,0.3-4.6,1.7c0,0,3.4-0.6,4.2-0.1c0,0-2.6,0.9-2.5,1.5
	c0,0,4.6,0,5.2,1.7c0,0-4.8,0.6-5.1,1.1c0,0,5.6,4,5.9,5.1c0,0-5.7-3.4-6.6-3.4s4.2,4.9,3.9,6.2C948.3,223,944.1,218.1,943,218.4z"
	/>
<linearGradient id="SVGID_2_" gradientUnits="userSpaceOnUse" x1="918.9731" y1="507.4502" x2="918.9731" y2="545.8902" gradientTransform="matrix(1 0 0 -1 -75 758.92)">
	<stop  offset="0" style="stop-color:#808080;stop-opacity:0.25"/>
	<stop  offset="0.54" style="stop-color:#808080;stop-opacity:0.12"/>
	<stop  offset="1" style="stop-color:#808080;stop-opacity:0.1"/>
</linearGradient>
<path class="st16" d="M851,224.6L851,224.6l-0.5-2.8c0-0.4-0.2-0.8-0.5-1.1l-2.4-1.2l0,0c-0.2-0.2-0.3-0.5-0.4-0.7v-0.1
	c0.1-0.2,0.2-0.4,0.3-0.6c0-0.1,0-0.1,0-0.2l0,0c0.5,0.1,0.9-0.3,1-0.7v-0.1c-0.1,0.4-0.4,0.6-0.8,0.7c0.7-0.4,1.1-1.2,1.1-2
	c0,0,0-0.1,0-0.1c0.2-0.1,0.4-0.4,0.4-0.6v-0.1c-0.1,0.2-0.2,0.4-0.4,0.6c0-0.2-0.1-0.5-0.2-0.7h0.1c0.5,0,0.9-0.4,0.9-0.9v0
	c0,0,0,0,0-0.1c0,0.5-0.4,0.8-0.9,0.8h-0.1l0,0c0.5-0.2,0.9-0.6,1-1.2c0,0,0,0,0-0.1c0,0.2-0.1,0.3-0.2,0.5c0.1-0.5-0.3-0.9-0.8-1
	s-0.9,0.3-1,0.8l0,0l-0.2-0.1c0.1-0.4,0.4-0.6,0.8-0.6h-0.1c-0.4,0-0.7,0.2-0.9,0.6c-1.1-0.5-2.4-0.1-3.1,0.9
	c-0.2,0.1-0.4,0.3-0.4,0.5c-0.1,0.1-0.1,0.2-0.2,0.3c-0.3,0.6-0.4,1.2-0.3,1.9c0.1,0.6-0.2,1.3-0.6,1.7c0.2,0.1,0.4,0.1,0.7,0
	c0.2-0.1,0.4-0.2,0.6-0.3c0.2-0.1,0.3-0.2,0.4-0.4l0,0c0.1,0.1,0.2,0.1,0.4,0.2c0,0.4,0.1,0.9-0.1,1l0,0l0,0v-0.1
	c-0.4,0.3-1,0.5-1.6,0.5c-0.7,0-1.3,0.4-1.6,1l-0.8,3.2l0,0v0l0,0v0l0,0c0,0.1,0.1,0.2,0.2,0.2l0.2,0.1c0.1,0.5,0.1,1,0,1.5
	c-0.2,0.8-0.2,1.6-0.3,2.4c0.1,0.4,0.2,2.5,0.2,3.4c-0.1,0.3-0.2,0.7-0.2,1l-1.1,6.7c0,0-0.8,5.4-0.8,7l-0.2,0.9
	c0,0-2.3,2.9-1.6,3.2s1.7,0.6,2.7-0.9c0.1-0.4,0.3-0.7,0.6-0.9c0.2-0.2,0.3-0.5,0.3-0.8l-0.1-0.7h0.1l0,0h0.1c0.6-2,1-4.1,1-6.2
	c0,0,2.1-7.4,3.7-8.5l0,0l0.2-0.1l0.3,7.1l-0.3,7.9l-0.1,0.5c0,0-2.3,2.9-1.6,3.2s1.7,0.6,2.7-0.9c0.1-0.4,0.3-0.7,0.6-0.9
	c0.2-0.2,0.3-0.5,0.3-0.8l-0.1-1c0.4-1.3,1.4-5.1,1-7.4l0.7-4.7c0.7-0.8,0.6-2.8,0.6-2.8c0.5-1.1,0.7-5.6,0.7-5.6l0.1-2.2h0.3h0.1
	l0,0l0-0.1l0,0v0l0,0L851,224.6z M849.1,229.1c-0.1-0.1-0.1-0.3-0.2-0.5h-0.1v-0.1v0v-0.1c0-0.1,0.1-0.2,0.1-0.2
	c0.1-0.1,0.1-0.3,0.1-0.5C849.1,228.2,849.1,228.6,849.1,229.1L849.1,229.1z M848.8,227.2l-0.1-1.5v-0.1l0.2,1.9L848.8,227.2z
	 M842.3,227.4c-0.1,0.1-0.1,0.3-0.1,0.4l0,0c0,0.2,0,0.3,0.1,0.5l-0.2,0.9v-1.8c0.1-0.2,0.3-0.4,0.4-0.6
	C842.4,227,842.4,227.2,842.3,227.4L842.3,227.4z"/>
<path class="st17" d="M843.7,215.9c-0.3,0.6-0.3,1.2-0.3,1.8c0.1,0.6-0.2,1.2-0.6,1.6c0.2,0.1,0.4,0.1,0.6,0
	c0.2-0.1,0.4-0.2,0.6-0.3c0.2-0.1,0.3-0.2,0.4-0.4c0.1-0.2,0.1-0.5,0.1-0.8c0-0.5,0-0.9,0.1-1.4c0-0.3,0.3-1,0-1.2
	S843.8,215.7,843.7,215.9z"/>
<path class="st18" d="M839.1,245.4l-0.2,1.4c0,0-2.2,2.8-1.5,3.1s1.6,0.6,2.6-0.9c0.1-0.3,0.3-0.7,0.6-0.9l0,0
	c0.2-0.2,0.3-0.5,0.3-0.8l-0.2-2.1L839.1,245.4z"/>
<path class="st18" d="M845.7,246l-0.2,1.4c0,0-2.2,2.8-1.5,3.1s1.6,0.6,2.6-0.9c0.1-0.3,0.3-0.7,0.6-0.9l0,0
	c0.2-0.2,0.3-0.5,0.3-0.8l-0.2-2.1L845.7,246z"/>
<path class="st19" d="M842.3,229.4c0,0-1,0.7-1.4,3.3l-1.1,6.5c-0.4,2.3-0.6,4.7-0.7,7l1.8,0.6c0.6-1.9,0.9-4,1-6
	c0,0,2.2-7.8,3.7-8.3l0.3,6.9l-0.3,7.8l1.6,0.3c0,0,1.6-4.9,1.1-7.5l0.8-5.5c0.5-1.8,0.4-3.8-0.4-5.5L842.3,229.4z"/>
<g class="st14">
	<path d="M845.4,232.5v-0.1c-1.5,0.5-3.7,8.3-3.7,8.3c0,2-0.4,4-0.9,5.9l0.2,0.1c0.6-1.9,0.9-4,1-6
		C842,240.8,843.9,233.7,845.4,232.5z"/>
	<path d="M848.7,228.7h-0.2c0.7,1.7,0.9,3.7,0.3,5.5l-0.8,5.5c0.5,2.5-0.9,7-1.1,7.5h0.2c0,0,1.6-4.9,1.1-7.5l0.8-5.5
		C849.6,232.4,849.5,230.5,848.7,228.7z"/>
</g>
<path class="st20" d="M840.9,224.3c0,0.1,0.1,0.2,0.2,0.2c0.5,0.1,1,0.3,1.4,0.7c0.8,0.6-0.8-1.2-0.8-1.2l-0.5,0.1L840.9,224.3z"/>
<path class="st21" d="M840.9,224.3c0,0.1,0.1,0.2,0.2,0.2c0.5,0.1,1,0.3,1.4,0.7c0.8,0.6-0.8-1.2-0.8-1.2l-0.5,0.1L840.9,224.3z"/>
<path class="st20" d="M848.4,225.9c0.6-0.5,1.4-0.8,2.2-0.9c0.1,0,0.2-0.1,0.2-0.2v0l0,0c-0.9-0.4-1.9,0-2.3,0.9
	C848.5,225.8,848.4,225.9,848.4,225.9z"/>
<path class="st21" d="M850.8,224.8c-0.9-0.4-1.9,0-2.3,0.9c0,0.1-0.1,0.1-0.1,0.2c0,0,1.3-1,2.3-0.9"/>
<circle class="st17" cx="846.3" cy="216.5" r="2.4"/>
<path class="st22" d="M844.7,218.1c0,0,0.3,1.4,0,1.7s-1,0.8-0.5,1.2s2.3,1.1,2.9,0.8s1.3-0.2,1.1-0.9s-1.5-0.5-1.5-4L844.7,218.1z"
	/>
<path class="st21" d="M841.3,223.9c0.1,0.8,0,1.5-0.1,2.2c-0.2,0.7-0.2,1.5-0.3,2.3c0.1,0.5,0.2,3.8,0.2,3.8s-0.3,2.9,1.2,2.6
	s-0.2-3.3-0.2-3.3l0.1-4c0.4-0.5,0.6-1.1,0.7-1.8C842.9,224.9,841.3,223.9,841.3,223.9z"/>
<path class="st22" d="M841.3,223.9c0.1,0.8,0,1.5-0.1,2.2c-0.2,0.7-0.2,1.5-0.3,2.3c0.1,0.5,0.2,3.8,0.2,3.8s-0.3,2.9,1.2,2.6
	s-0.2-3.3-0.2-3.3l0.1-4c0.4-0.5,0.6-1.1,0.7-1.8C842.9,224.9,841.3,223.9,841.3,223.9z"/>
<path class="st21" d="M850.3,224.1l-0.2,3.1c0,0-0.1,4.3-0.7,5.4c0,0,0.1,3-1.3,3s0.2-3.3,0.2-3.3s0.8-3.4,0.4-4.5l-0.4-3.7
	L850.3,224.1z"/>
<path class="st22" d="M850.3,224.1l-0.2,3.1c0,0-0.1,4.3-0.7,5.4c0,0,0.1,3-1.3,3s0.2-3.3,0.2-3.3s0.8-3.4,0.4-4.5l-0.4-3.7
	L850.3,224.1z"/>
<path class="st21" d="M845.8,221.1c0,0,1.1,0.5,1.8-1l2.3,1.1c0.3,0.3,0.5,0.7,0.5,1l0.5,2.7c-0.9-0.3-1.9,0.1-2.2,1c0,0,0,0,0,0
	l0.1,1.5l0,0c0.1,0.4,0.1,0.8-0.1,1.1c0,0.1,0,0.1,0,0.2c0.1,0.4,0,0.8-0.4,1c-0.1,0-0.2,0-0.2,0c-0.6,0-1.3,0.1-1.9,0.1
	c-0.5,0.1-2-0.3-2.5,0s-1.6-0.2-1.6-0.2l0.3-1.2c0,0-0.2-0.6,0-0.8c0.2-0.9,0.1-1.8-0.1-2.6c0,0-0.9-0.8-1.4-0.7l0.7-3.1
	c0.3-0.6,0.9-1,1.6-1c0.5,0,1.1-0.1,1.5-0.4C844.6,219.9,844.1,220.9,845.8,221.1z"/>
<path class="st21" d="M845.9,221.1c0.3,0.1,1.2,0.2,1.7-1.1l2.3,1.1c0.3,0.3,0.5,0.7,0.5,1l0.5,2.7c-0.9-0.3-1.9,0.1-2.2,1
	c0,0,0,0,0,0l0.1,1.5l0.1,0.3c0.1,0.3,0,0.5-0.1,0.8c-0.1,0.1-0.1,0.2,0,0.3c0.1,0.4,0,0.8-0.4,1c-0.1,0-0.2,0-0.2,0
	c-0.6,0-1.3,0.1-1.9,0.1c-0.5,0.1-2-0.3-2.5,0s-1.6-0.2-1.6-0.2l0.3-1.2c0,0-0.2-0.6,0-0.8c0.2-0.9,0.1-1.8-0.1-2.6
	c0,0-0.9-0.8-1.4-0.7l0.7-3.1c0.3-0.6,0.9-1,1.6-1c0.5,0,1.1-0.1,1.5-0.4c0,0-0.6,1,0.9,1.2L845.9,221.1z"/>
<path class="st20" d="M845.9,221.1c0.3,0.1,1.2,0.2,1.7-1.1l2.3,1.1c0.3,0.3,0.5,0.7,0.5,1l0.5,2.7c-0.9-0.3-1.9,0.1-2.2,1
	c0,0,0,0,0,0l0.1,1.5l0,0c0.1,0.4,0.1,0.8-0.1,1.1c0,0.1,0,0.1,0,0.2c0.1,0.4,0,0.8-0.4,1c-0.1,0-0.2,0-0.2,0
	c-0.6,0-1.3,0.1-1.9,0.1c-0.5,0.1-2-0.3-2.5,0s-1.6-0.2-1.6-0.2l0.3-1.2c0,0-0.2-0.6,0-0.8c0.2-0.9,0.1-1.8-0.1-2.6
	c0,0-0.9-0.8-1.4-0.7l0.7-3.1c0.3-0.6,0.9-1,1.6-1c0.5,0,1.1-0.1,1.5-0.4c0,0-0.6,1,0.9,1.2L845.9,221.1z"/>
<path class="st21" d="M846.8,217l-2,1.3c0.1,0.2,0.1,0.4,0.1,0.7c0.2,0.1,0.5,0.1,0.7,0.1c0.5,0,1-0.2,1.3-0.6
	C846.8,218,846.8,217.5,846.8,217z"/>
<circle class="st22" cx="845.5" cy="217" r="2"/>
<circle class="st17" cx="848.4" cy="214.6" r="0.9"/>
<path class="st17" d="M848.6,215.5c-0.5,0-0.8-0.3-0.9-0.8c0,0,0,0,0,0.1c0,0.5,0.4,0.9,0.9,0.9c0.5,0,0.9-0.4,0.9-0.9c0,0,0,0,0,0
	c0,0,0,0,0-0.1C849.4,215.2,849,215.5,848.6,215.5z"/>
<path class="st17" d="M848.1,216.4c-0.4-0.1-0.7-0.5-0.7-0.9v0.1c-0.1,0.5,0.2,0.9,0.7,1s0.9-0.2,1-0.7v-0.1
	C849,216.2,848.5,216.4,848.1,216.4z"/>
<path class="st17" d="M847.4,218.4c-0.4-0.1-0.7-0.5-0.7-0.9v0.1c-0.1,0.5,0.2,0.9,0.7,1s0.9-0.2,1-0.7l0,0v-0.1
	C848.3,218.2,847.9,218.5,847.4,218.4z"/>
<path class="st17" d="M848.6,215.1c-0.5,0-0.8-0.3-0.9-0.8c0,0,0,0,0,0.1c0,0.5,0.4,0.9,0.9,0.9c0.5,0,0.9-0.4,0.9-0.9
	c0,0,0,0,0-0.1C849.4,214.7,849,215.1,848.6,215.1z"/>
<path class="st17" d="M847.4,214.6c0-0.5,0.4-0.8,0.8-0.9h-0.1c-0.5,0-0.9,0.4-0.9,0.9c0,0.5,0.4,0.9,0.9,0.9h0.1
	C847.7,215.4,847.4,215,847.4,214.6z"/>
<path class="st21" d="M848.2,222.7c0.1,0.4,0.1,0.9,0,1.3c0,0-0.1,1.1,0.1,1.3"/>
<path class="st21" d="M842.4,222.9c0.1,0.4,0.1,0.9,0,1.3c0,0-0.1,1.1,0.1,1.3"/>
<path class="st21" d="M842.4,227.6c0.2,0.1,0.4,0.1,0.6,0c0.2-0.1,0.5-0.1,0.7,0"/>
<path class="st21" d="M842.7,225.9c0.7,0,1.4-0.1,2-0.3c0,0,2.4,0.6,3.1,0.2"/>
<path class="st22" d="M841.3,236.2h0.7c0.2,0,0.4,0.2,0.4,0.4v0.1c0,0.2-0.2,0.4-0.4,0.4h-0.7c-0.2,0-0.4-0.2-0.4-0.4v-0.1
	C840.9,236.4,841.1,236.2,841.3,236.2z"/>
<path class="st23" d="M840.9,236.4h0.8l0.7,0.1h-0.2L840.9,236.4z"/>
<path class="st23" d="M846.3,232.6h0.8l0.7,0.1h-0.2L846.3,232.6z"/>
<path class="st23" d="M846.3,232.7h0.8l0.7,0.1h-0.2L846.3,232.7z"/>
<path class="st23" d="M846.3,232.9h0.8l0.7,0.1h-0.2L846.3,232.9z"/>
<path class="st23" d="M846.3,233.1h0.8l0.7,0.1h-0.2L846.3,233.1z"/>
<path class="st23" d="M840.9,237.1h0.8l0.7,0.1h-0.2L840.9,237.1z"/>
<path class="st23" d="M840.9,237h0.8l0.7,0.1h-0.2L840.9,237z"/>
<path class="st23" d="M840.9,236.9h0.8l0.7,0.1h-0.2L840.9,236.9z"/>
<path class="st23" d="M840.9,236.9h0.8l0.7,0.1h-0.2L840.9,236.9z"/>
<path class="st23" d="M840.9,236.3h0.8l0.7,0.1h-0.2L840.9,236.3z"/>
<path class="st23" d="M840.9,236.2h0.8l0.7,0.1h-0.2L840.9,236.2z"/>
<path class="st21" d="M845.8,215.7c-0.1,0.7,0,1.5,0.3,2.2c0.2,0.7,0.2,1.4-0.1,2.1c0.2,0.1,0.4,0,0.6-0.1c0.2-0.2,0.3-0.3,0.4-0.5
	c0.1-0.2,0.2-0.3,0.3-0.5c0-0.3,0-0.6-0.1-0.9c-0.1-0.5-0.2-1.1-0.3-1.6c0-0.3,0-1.3-0.4-1.4S845.9,215.4,845.8,215.7z"/>
<path class="st17" d="M845.9,215.7c-0.1,0.7,0,1.5,0.3,2.2c0.3,0.7,0.2,1.4-0.1,2.1c0.2,0.1,0.4,0,0.6-0.1c0.2-0.2,0.3-0.3,0.4-0.5
	c0.1-0.2,0.2-0.3,0.3-0.5c0-0.3,0-0.6-0.1-0.9c-0.1-0.5-0.2-1.1-0.3-1.6c0-0.3,0-1.3-0.4-1.4S846,215.4,845.9,215.7z"/>
<path class="st21" d="M845.1,216.2c0.2,0.2,0.2,0.4,0.3,0.6c0.3,0.3,0.6,0.4,1,0.4c0.1,0,0.2,0,0.3,0.1c0.2,0.1,0.2,0.3,0.3,0.5
	c0.2,0.2,0.6,0.2,0.8,0c0,0,0,0,0,0c0.2-0.2,0.3-0.5,0.2-0.8c0-0.3,0-0.7,0-1c0-0.4-0.2-0.8-0.4-1.1c-0.2-0.2-0.5-0.3-0.8-0.3
	c-0.4-0.1-0.8-0.2-1.2-0.1c-0.2,0.1-0.4,0.2-0.5,0.3l-0.7,0.5c-0.3,0.2-0.7,0.5-0.3,0.7C844.4,216,844.8,215.9,845.1,216.2z"/>
<path class="st17" d="M845.1,216.2c0.2,0.2,0.2,0.4,0.3,0.6c0.3,0.3,0.6,0.4,1,0.4c0.1,0,0.2,0,0.3,0.1c0.2,0.1,0.2,0.3,0.3,0.5
	c0.2,0.2,0.6,0.2,0.8,0c0,0,0,0,0,0c0.2-0.2,0.3-0.5,0.3-0.9c0-0.3,0-0.7,0-1c0-0.4-0.2-0.8-0.4-1.1c-0.2-0.2-0.5-0.3-0.8-0.3
	c-0.4-0.1-0.8-0.2-1.2-0.1c-0.2,0.1-0.4,0.2-0.5,0.3l-0.7,0.5c-0.3,0.2-0.7,0.5-0.3,0.7C844.5,215.9,844.8,215.9,845.1,216.2z"/>
<path class="st23" d="M846.4,232.6h0.8l0.7,0.1h-0.2L846.4,232.6z"/>
<path class="st23" d="M846.4,232.7h0.8l0.7,0.1h-0.2L846.4,232.7z"/>
<path class="st23" d="M846.4,232.9h0.8l0.7,0.1h-0.2L846.4,232.9z"/>
<path class="st23" d="M846.4,233.1h0.8l0.7,0.1h-0.2L846.4,233.1z"/>
<path class="st23" d="M846,242.3h0.8l0.7,0.1h-0.2L846,242.3z"/>
<path class="st23" d="M846,242.5h0.8l0.7,0.1h-0.2L846,242.5z"/>
<path class="st23" d="M846,242.6h0.8l0.7,0.1h-0.2L846,242.6z"/>
<path class="st23" d="M846,242.8h0.8l0.7,0.1h-0.2L846,242.8z"/>
<path class="st24" d="M392.4,694.7h-79.5v-44.8h79.5V694.7z M316.2,691.3H389v-38.1h-72.8V691.3z"/>
<linearGradient id="SVGID_3_" gradientUnits="userSpaceOnUse" x1="1070.4153" y1="128.2623" x2="1070.4153" y2="585.3058" gradientTransform="matrix(-1 0 0 -1 1386.85 758.92)">
	<stop  offset="0" style="stop-color:#808080;stop-opacity:0.25"/>
	<stop  offset="0.54" style="stop-color:#808080;stop-opacity:0.12"/>
	<stop  offset="1" style="stop-color:#808080;stop-opacity:0.1"/>
</linearGradient>
<path class="st25" d="M259.9,627.5c5,2.9,10.3,4.1,15.7,2.3c1.4-0.5,2.8-1.1,4.1-1.8c51,1.1,98.2,0.6,100.1-4.9
	c3-9.1-16-53.9-25.6-75.6c2.8-1.9,5.2-4.4,7-7.3c13.3,15.2,38.1,34.9,52.8,35.9c0,0,21.5,51.1,45.7,43s26.9-51.1,14.8-56.4
	l-80.6-51.1v-84.7c2.5-4.9,3.6-10.3,3.4-15.7c0-1,0-2,0-3l-2.7-24.2c0,0-0.1-0.8-0.5-2.2c-6-23.3-19.4-39-38.2-41.3
	c0.9-1.7,1.5-3.5,1.6-5.4c0.4-4.5-1.5-9.1-0.4-13.5c1.2-5.1,6-8.5,9.9-12c8.4-7.6,13.6-18,18.7-28.1c4.8-9.6,9.8-19.5,11-30.2
	c1.2-10.7-2-22.6-10.8-28.9c-6.8-4.9-16.4-6.2-21.3-13c-2.2-3.1-3.1-6.8-4.6-10.3c-4.4-9.9-13.7-16.9-23.9-20.6
	c-35.7-12.9-79.5,1.9-102.3,31.6c-7.4,9.7-12.8,20.8-18.1,31.8l-19.2,39.7c-3.3,6.8-6.5,15.4-2.1,21.5c2.2,3,5.9,4.9,7.4,8.2
	c2,4.5-0.5,10.4,2.4,14.4c1.6,2.2,4.4,3.1,6.8,4.3c3.2,1.8,6.1,4.3,8.3,7.3l-42.2,32.7c-6.2,4.8-10.1,11.9-10.9,19.6l-4.2,41.6
	c-1.3,4.7-2,9.6-1.9,14.5c-0.1,4.4,0.4,9.2,2.6,13l0.9-0.2c1,29.1,2.7,71.1,4.5,78.8c1,4.6,7.3,12.7,15.8,21.1l-3,8.5h1l-1,2.7h2
	c-8.5,30.6-31.6,53.7-31.6,53.7S204.7,625.9,259.9,627.5z M209.8,485.9v-32.7c4.9,0.8,8.5,2.5,9.7,5.6L209.8,485.9z M224,343.7
	l0.2,0.2h-0.1L224,343.7z"/>
<path class="st22" d="M345.3,417.9c0,0,2.5,90.6,5.1,102.1s39.6,46,58.7,47.3c0,0,20.4,48.5,43.4,40.8c23-7.7,25.5-48.5,14-53.6
	L390,506v-97L345.3,417.9z"/>
<path class="st26" d="M347.2,529c0,0,33.2,71.5,29.4,83s-217,0-217,0s39.6-39.6,31.9-83H347.2z"/>
<path class="st22" d="M321.7,317.1c0,0-5.1,49.8,3.8,61.3s-35.7,17.9-39.5,17.9s-44.7-14-52.3-17.9s-14-31.9-14-31.9
	s38.3,7.7,49.8-37L321.7,317.1z"/>
<path class="st27" d="M335.1,189.4c9.7,3.5,18.6,10.2,22.7,19.6c1.4,3.3,2.3,6.9,4.4,9.8c4.6,6.5,13.7,7.7,20.2,12.4
	c8.3,6,11.4,17.3,10.2,27.4c-1.1,10.2-5.8,19.5-10.4,28.7c-4.8,9.6-9.8,19.4-17.8,26.7c-3.7,3.4-8.2,6.5-9.4,11.4
	c-1,4.2,0.8,8.6,0.4,12.9c-0.9,10.6-13.6,15.5-24.2,16.7c-4.6,0.5-9.9,0.5-13.1-2.8c-1.7-1.7-2.5-4-3.5-6.1
	c-7.2-14.6-24.9-20.5-39.4-13.3c-5.6,2.8-10.2,7.3-13.1,12.8c-2.5,4.8-3.9,10.6-8.5,13.5c-6.9,4.5-16.2-0.8-21.3-7.2
	c-5.1-6.5-8.8-14.6-16.1-18.5c-2.3-1.2-5-2-6.5-4.1c-2.8-3.8-0.4-9.4-2.3-13.6c-1.4-3.2-4.9-5-7-7.8c-4.2-5.9-1.2-14,2-20.5
	l18.2-37.7c5-10.4,10.1-21,17.2-30.2C259.5,191.2,301.1,177.2,335.1,189.4z"/>
<path class="st21" d="M288.5,387.3c0,0-49.8,0-62.5-46l-41.9,32.5c-5.8,4.5-9.6,11.3-10.3,18.6l-4,39.5c0,0-4.5,14.7,0.6,23.6
	c0,0,53-13.4,54.2,1.9l-37,103.4c0,0,57.4,1.3,72.8-8.9c0,0,62.5,12.8,77.9-1.3s30.6-12.8,17.9-44.7c0,0,25.5-25.5,14-61.3
	c-11.5-35.7-0.6,0.6-0.6,0.6s24.9-12.1,23.6-35.1l-2.5-23c0,0-0.1-0.8-0.5-2.1c-7.8-30.3-28.7-47-58.1-36.3
	c-8.6,3.1-17.4-0.5-17.4-0.5S324.2,389.9,288.5,387.3z"/>
<path class="st28" d="M288.5,384.8c0,0-49.8,0-62.5-46l-41.9,32.5c-5.8,4.5-9.6,11.3-10.3,18.6l-4,39.5c0,0-4.5,14.7,0.6,23.6
	c0,0,53-13.4,54.2,1.9l-37,103.4c0,0,57.4,1.3,72.8-8.9c0,0,62.5,12.8,77.9-1.3s30.6-12.8,17.9-44.7c0,0,25.5-25.5,14-61.3
	c-11.5-35.7-0.6,0.6-0.6,0.6s24.9-12.1,23.6-35.1l-2.5-23c0,0-0.1-0.8-0.5-2.1c-7.8-30.3-28.7-47-58.1-36.3
	c-8.6,3.1-17.4-0.5-17.4-0.5S324.2,387.3,288.5,384.8z"/>
<path class="st22" d="M170.4,428.2c0,0,2.6,90.6,5.1,102.1s39.6,46,58.7,47.2c0,0,20.4,48.5,43.4,40.8s25.5-48.5,14-53.6l-76.6-48.5
	v-97L170.4,428.2z"/>
<path class="st21" d="M225.3,431.4c0,0-29.3,19.9-54.9,18.3c0,0-2.6-34.2,5.1-36.1C183.2,411.6,216.4,413.5,225.3,431.4z"/>
<path class="st28" d="M225.3,430.1c0,0-29.3,19.9-54.9,18.2c0,0-2.6-34.2,5.1-36.1C183.2,410.3,216.4,412.2,225.3,430.1z"/>
<path class="st21" d="M266.8,312l52.3,7.7c0,0-1.2,11.5-1.4,24.8c-20.7,8.7-44.7,4.9-61.6-10C260.5,329,264.3,321.8,266.8,312z"/>
<circle class="st22" cx="297.5" cy="287.8" r="58.7"/>
<path class="st21" d="M282,276.5c2.4,1.1,5.2,1.1,7.9,1.1c10.4-0.1,20.8-0.5,31.1-1.1c7.9-0.5,16.2-1.5,22.3-6.5
	c8.2-6.8,9.5-19.5,5.2-29.2s-12.8-16.9-21.9-22.4c-5.1-3.3-10.7-5.8-16.5-7.5c-16.8-4.6-35.4,1-48.8,12.2s-21.9,27.4-26.4,44.2
	c-1.6,5.8-3.6,12.8-9.3,14.5c3.8,6.4,13.2,7.4,20,4.2c9.9-4.7,15-22.8,23.9-25.6C279.4,257.4,273.6,272.6,282,276.5z"/>
<path class="st27" d="M282,275.2c2.4,1.1,5.2,1.1,7.9,1.1c10.4-0.1,20.8-0.5,31.1-1.2c7.9-0.5,16.2-1.5,22.3-6.5
	c8.2-6.8,9.5-19.5,5.2-29.2s-12.8-16.9-21.9-22.4c-5.1-3.2-10.7-5.7-16.5-7.4c-16.8-4.6-35.4,1-48.8,12.2s-21.9,27.4-26.4,44.2
	c-1.6,5.8-3.6,12.8-9.3,14.5c3.8,6.4,13.2,7.4,20,4.2c9.9-4.7,15-22.8,23.9-25.6C279.4,256.1,273.6,271.3,282,275.2z"/>
<path class="st21" d="M356.8,502.8c-19.1-5.1-38.9-7.7-58.7-7.7"/>
<path class="st21" d="M225.3,433.9c0,0,19.1,14,14,21.7"/>
<g class="st29">
	
		<linearGradient id="SVGID_4_" gradientUnits="userSpaceOnUse" x1="441.23" y1="0.16" x2="441.23" y2="227.36" gradientTransform="matrix(1 0 0 -1 0 806)">
		<stop  offset="0" style="stop-color:#808080;stop-opacity:0.25"/>
		<stop  offset="0.54" style="stop-color:#808080;stop-opacity:0.12"/>
		<stop  offset="1" style="stop-color:#808080;stop-opacity:0.1"/>
	</linearGradient>
	<polygon class="st30" points="754.6,578.6 127.9,578.6 127.9,633.4 164.4,633.4 164.4,644.1 164.4,805.8 719.4,805.8 719.4,644.1 
		719.4,633.4 754.6,633.4 	"/>
</g>
<rect x="170" y="610.5" class="st31" width="543.7" height="195.3"/>
<rect x="170" y="620.8" class="st21" width="543.7" height="30.6"/>
<rect x="134.3" y="588.8" class="st31" width="613.9" height="52.3"/>
<path class="st32" d="M256.8,576h104.4c3.6,0,6.5,2.9,6.5,6.5v3.6c0,3.6-2.9,6.5-6.5,6.5H256.8c-3.6,0-6.5-2.9-6.5-6.5v-3.6
	C250.3,578.9,253.2,576,256.8,576z"/>
<g class="st29">
	
		<linearGradient id="SVGID_5_" gradientUnits="userSpaceOnUse" x1="467.655" y1="213.23" x2="467.655" y2="415.03" gradientTransform="matrix(1 0 0 -1 0 806)">
		<stop  offset="0" style="stop-color:#808080;stop-opacity:0.25"/>
		<stop  offset="0.54" style="stop-color:#808080;stop-opacity:0.12"/>
		<stop  offset="1" style="stop-color:#808080;stop-opacity:0.1"/>
	</linearGradient>
	<path class="st33" d="M350,391h235.4c15.6,0,28.2,12.6,28.2,28.2v145.4c0,15.6-12.6,28.2-28.2,28.2H350
		c-15.6,0-28.2-12.6-28.2-28.2V419.2C321.7,403.6,334.4,391,350,391z"/>
</g>
<path class="st34" d="M353.8,394.7h222.8c14.8,0,26.8,12,26.8,26.8v144.4c0,14.8-12,26.8-26.8,26.8H353.8c-14.8,0-26.8-12-26.8-26.8
	V421.5C326.9,406.7,339,394.7,353.8,394.7z"/>
<path class="st32" d="M357.6,394.7h222.8c14.8,0,26.8,12,26.8,26.8v144.4c0,14.8-12,26.8-26.8,26.8H357.6c-14.8,0-26.8-12-26.8-26.8
	V421.5C330.8,406.7,342.8,394.7,357.6,394.7z"/>
<circle class="st31" cx="481.9" cy="492.4" r="8.9"/>
</svg>
