<?xml version="1.0" encoding="utf-8"?>
<!-- Generator: Adobe Illustrator 24.0.1, SVG Export Plug-In . SVG Version: 6.00 Build 0)  -->
<svg version="1.1" id="a4efc002-80f6-4f30-a290-092c25b18b21"
	 xmlns="http://www.w3.org/2000/svg" xmlns:xlink="http://www.w3.org/1999/xlink" x="0px" y="0px" viewBox="0 0 1149 784.1"
	 style="enable-background:new 0 0 1149 784.1;" xml:space="preserve">
<style type="text/css">
	.st0{fill:#F2F2F2;}
	.st1{fill:#3F3D56;}
	.st2{fill:#A8A8A8;}
	.st3{opacity:0.2;enable-background:new    ;}
	.st4{opacity:0.3;fill:#0073AA;enable-background:new    ;}
	.st5{fill:#0073AA;}
	.st6{fill:#FFB8B8;}
	.st7{fill:#F86D70;}
	.st8{fill:#2F2E41;}
	.st9{opacity:0.1;enable-background:new    ;}
	.st10{fill:#FFFFFF;}
	.st11{fill:none;stroke:#535461;stroke-width:2;stroke-miterlimit:10;}
	.st12{opacity:0.25;enable-background:new    ;}
</style>
<title>done</title>
<path class="st0" d="M928,710.1c2.6,0,5.3,0,7.9,0c85.2,0.5,157.8,9.7,189.3,22.6c10.8,4.4,16.8,9.3,16.8,14.4
	c0,20.4-95.8,37-214,37s-214-16.6-214-37S809.8,710.1,928,710.1z"/>
<ellipse class="st1" cx="1037" cy="628.1" rx="112" ry="120"/>
<path class="st2" d="M795.3,188.1c-4.2,1.3-23-1.2-36.7-4.9s8-15.8,10-19.8s16.2,3.1,19.2,6.6s15.1,7.1,15.1,7.1
	S799.6,186.8,795.3,188.1z"/>
<path class="st3" d="M754.3,178.3c-0.6,2.1,0.4,3.8,4.3,4.9c13.7,3.7,32.5,6.1,36.7,4.9s7.6-10.9,7.6-10.9s-0.1,0-0.4-0.1
	c-1.1,2.7-3.8,8.5-7,9.5c-4.2,1.3-23-1.2-36.7-4.9C755.8,180.9,754.5,179.7,754.3,178.3z"/>
<rect x="20" y="26.1" class="st0" width="806" height="442"/>
<rect x="19" y="142.8" class="st4" width="442" height="231.5"/>
<rect x="495" y="132.7" class="st1" width="177.3" height="9.8"/>
<rect x="495" y="150.8" class="st1" width="258" height="9.8"/>
<rect x="495" y="194.6" class="st1" width="177.3" height="9.8"/>
<rect x="495" y="267" class="st1" width="177.3" height="9.8"/>
<rect x="495" y="212.7" class="st1" width="258" height="9.8"/>
<rect x="495" y="230.8" class="st1" width="258" height="9.8"/>
<rect x="495" y="248.9" class="st1" width="258" height="9.8"/>
<rect x="495" y="310.8" class="st5" width="92.8" height="25.6"/>
<path class="st6" d="M824.3,415.3c0,0-30.5-25-18.5-39.8s28.7,32.4,28.7,32.4L824.3,415.3z"/>
<path class="st7" d="M946.5,402.4c0,0-31.5,53.7-38.9,60.1s-12,9.3-20.4,3.7c-8.3-5.6-69.4-50-69.4-50c5.6-2.8,16.7-15.7,16.7-15.7
	c0,10.2,52.7,30.5,53.7,27.8s9.3-22.2,12-29.6c2.8-7.4,1.9-4.6,0-8.3c-1.9-3.7,2.9-25,2.9-25l10-3.7L946.5,402.4z"/>
<path class="st8" d="M856.7,688.3c-4.6,10.2-34.2,29.6-34.2,29.6s-32.4,1.9-31.5,12s65.7,6.5,69.4,4.6s13,0,28.7-4.6
	s1.9-27.8,0-28.7s-2.8-11.1-2.8-11.1S861.3,678.1,856.7,688.3z"/>
<path class="st8" d="M1039.9,714.2v16.7c0,6.5-17.6,25.9-25.9,30.5s-0.9,13,9.3,12c7.9-0.7,62-17.6,67.6-22.2
	c5.6-4.6-16.7-42.6-16.7-42.6L1039.9,714.2z"/>
<path class="st8" d="M984.4,466.2c-3.7,0-74,60.1-87.9,67.6s-16.7,25-14.8,37.9s-20.4,87.9-23.1,94.4s-7.4,18.5-7.4,23.1
	s33.3,8.3,40.7,3.7s4.6-13,11.1-26.8s25.9-67.6,28.7-72.2c2.8-4.6,4.6-7.4,2.8-12s8.3-6.5,8.3-6.5c26.8-11.1,65-57.3,65-57.3
	s-8.6,24.9-21.5,42.5c-13,17.6-1.9,49-1.9,49s34.2,52.7,35.2,59.2c0.9,6.5,13.9,27.8,13.9,31.5s0,12,7.4,18.5s31.5-0.9,37.9-9.3
	s-1.9-2.8-3.7-13.9s-8.3-5.6-9.3-31.5s-32.4-75.9-32.4-75.9l50.9-64.8c30.5-38.9,11.1-62.9,11.1-62.9S988.1,466.2,984.4,466.2z"/>
<circle class="st6" cx="909.5" cy="276.5" r="38.9"/>
<path class="st6" d="M904.8,307c11.1,1.9,24.1,42.6,24.1,42.6s53.7-42.6,38.9-45.3S941,280.2,941,280.2S893.7,305.2,904.8,307z"/>
<path class="st7" d="M924.7,337.8c0,0,1.4,5.3,10.7-2.1c6-4.8,16.2-19.7,22.7-29.5c3.6-5.5,10.4-8.1,16.8-6.5l6.7,1.8
	c32.4,0,71.3,65.7,71.3,65.7s19.4,41.6,31.5,53.7c12,12,8.3,19.4,13.9,41.6c3.3,13.3-37.2,17.3-72.2,18c-2.7,0.1-5.4,0.1-8.1,0.1
	c-9.3,0.1-17.9-0.1-24.7-0.3c-2.9-0.1-5.5-0.2-7.8-0.4c-2.5-0.1-5.1-0.3-7.6-0.7c-8.3-1.9,0.9-13.9,4.6-19.4s-0.9-5.6-4.6-6.5
	s-4.6-11.1-4.6-11.1l-34.2-28.7c0,0-36.1-34.2-36.1-46.3C903,355.2,924.7,337.8,924.7,337.8z"/>
<path class="st6" d="M1001.1,513.4c0,0-9.3,50.9-25.9,43.5c-16.7-7.4,10.2-49,10.2-49L1001.1,513.4z"/>
<path class="st8" d="M941.9,268.9c0.8,1.4,0.7,3.2,0.5,4.8l-1,8.9c-0.7,2.3,0.3,4.9,2.4,6.1l7.1,5.6c-0.9-5.1,3.1-9.6,5.5-14.2
	c2.9-5.9,3.1-12.7,0.7-18.8c-1.7-4.1-4.5-7.7-5.5-12c-0.4-1.8-0.5-3.6-0.8-5.4c-1.5-8.6-9.1-15.1-17.4-17.8s-17.2-2.1-25.9-1.1
	c-6.4,0.6-12.7,1.9-18.9,3.8c-5.3,1.7-10.5,4.3-13.6,8.9c-4.1,6-8.2,16.8-7.1,24c0.5,3.2,1.7,6.9,4.8,7.6c3.3,0.7,5.9-2.7,9.1-3.7
	c1.4-0.5,7.6-3.2,9.1-3.6c2.2-0.6,4-2.3,5.8-3.6c3.5-2.6,7.4-4.6,11.6-5.7c2.9-0.9,6-1.1,9.1-0.7c7.9,1.3,13.9,8.8,15.2,16.7
	c0.3,1.5,0.7,3.4,2.2,3.6C937.4,272.4,938.7,263.4,941.9,268.9z"/>
<path class="st9" d="M974.2,324.6c12-8.3,21.3-11.1,21.3-11.1s18.5,6.5,25.9,30.5s21.3,75,13,108.3c-2.3,9.1-5.2,18.8-8.4,28.2
	c-12.3,0.2-24,0.1-32.7-0.2l8.7-36.2C1002,444,962.2,333,974.2,324.6z"/>
<path class="st9" d="M984.9,337.1c12-8.3,5.6,7.4,5.6,7.4s16.2-26.4,23.6-2.3c7.4,24.1,21.3,75,13,108.3c-2.4,9.7-5.7,20.2-9,30.1
	c-9.3,0.1-17.9-0.1-24.7-0.3c-2.9-0.1-5.5-0.2-7.8-0.4l9.1-37.7C994.6,442.2,972.9,345.5,984.9,337.1z"/>
<path class="st7" d="M970.5,322.8c-12,8.3,27.8,119.4,27.8,119.4l-17.6,73.1c6.5-2.8,24.1,10.2,24.1,10.2s17.6-41.6,25.9-75
	c8.3-33.3-5.6-84.2-13-108.3c-7.4-24.1-25.9-30.5-25.9-30.5S982.6,314.4,970.5,322.8z"/>
<rect y="118.8" class="st5" width="442" height="231.5"/>
<ellipse class="st10" cx="229.2" cy="239.1" rx="50" ry="50.1"/>
<path class="st10" d="M229.2,180.5c-33,0-59.8,26.8-59.8,59.8s26.8,59.8,59.8,59.8s59.8-26.8,59.8-59.8
	C288.9,207.3,262.2,180.6,229.2,180.5z"/>
<polygon class="st5" points="217,272.1 186.3,241.5 194.9,232.9 217,255 263.6,208.4 272.2,217 "/>
<g>
	<ellipse class="st0" cx="217.9" cy="753.2" rx="115.8" ry="29"/>
	<path class="st11" d="M238.4,760.9c0,0-10.5-72.2,21-119.7c13.4-19.8,19.9-43.5,18.7-67.4c-0.7-11.3-2.4-22.6-5.1-33.6"/>
	<path class="st5" d="M292.7,510.1c-1.2,8.5-20.1,30.9-20.1,30.9s-11.8-26.8-10.6-35.3c1.1-8.5,8.8-14.6,17.3-13.5
		s14.6,8.8,13.5,17.3C292.8,509.8,292.8,510,292.7,510.1L292.7,510.1z"/>
	<path class="st5" d="M311.4,560.8c-5.6,6.5-33.7,15-33.7,15s4.6-29,10.3-35.4c5.6-6.5,15.4-7.1,21.9-1.5S317.1,554.3,311.4,560.8
		L311.4,560.8L311.4,560.8z"/>
	<path class="st5" d="M298.8,641c-8.1,2.7-36.7-4-36.7-4s18.6-22.7,26.8-25.4c8.3-2.3,16.8,2.5,19.1,10.8
		C310.2,630.1,306.2,638.1,298.8,641z"/>
	<path class="st5" d="M275.6,699.6c-7.5,4.1-36.8,2.2-36.8,2.2s14.5-25.5,22.1-29.5c7.5-4.1,17-1.2,21,6.3S283.1,695.5,275.6,699.6
		L275.6,699.6L275.6,699.6z"/>
	<path class="st5" d="M245.2,572.8c5.2,6.8,32.7,17,32.7,17s-2.9-29.2-8.2-36c-5.2-6.8-15-8-21.8-2.8
		C241.2,556.3,240,566.1,245.2,572.8z"/>
	<path class="st5" d="M218.9,641.6c7,4.9,36.3,6.4,36.3,6.4s-11.5-27-18.5-31.9c-7-5-16.7-3.4-21.7,3.5s-3.4,16.7,3.5,21.7
		C218.7,641.5,218.8,641.6,218.9,641.6L218.9,641.6z"/>
	<path class="st5" d="M202.6,712c6.1,6,34.7,12.5,34.7,12.5s-6.8-28.5-12.9-34.5c-6-6.1-15.8-6.2-22-0.2c-6.1,6-6.2,15.8-0.2,22
		C202.3,711.8,202.5,711.9,202.6,712L202.6,712z"/>
	<path class="st12" d="M292.7,510.1c-1.2,8.5-20.1,30.9-20.1,30.9s-11.8-26.8-10.6-35.3c1.1-8.5,8.8-14.6,17.3-13.5
		s14.6,8.8,13.5,17.3C292.8,509.8,292.8,510,292.7,510.1L292.7,510.1z"/>
	<path class="st12" d="M311.4,560.8c-5.6,6.5-33.7,15-33.7,15s4.6-29,10.3-35.4c5.6-6.5,15.4-7.1,21.9-1.5S317.1,554.3,311.4,560.8
		L311.4,560.8L311.4,560.8z"/>
	<path class="st12" d="M298.8,641c-8.1,2.7-36.7-4-36.7-4s18.6-22.7,26.8-25.4c8.3-2.3,16.8,2.5,19.1,10.8
		C310.2,630.1,306.2,638.1,298.8,641z"/>
	<path class="st12" d="M275.6,699.6c-7.5,4.1-36.8,2.2-36.8,2.2s14.5-25.5,22.1-29.5c7.5-4.1,17-1.2,21,6.3S283.1,695.5,275.6,699.6
		L275.6,699.6L275.6,699.6z"/>
	<path class="st12" d="M245.2,572.8c5.2,6.8,32.7,17,32.7,17s-2.9-29.2-8.2-36c-5.2-6.8-15-8-21.8-2.8
		C241.2,556.3,240,566.1,245.2,572.8z"/>
	<path class="st12" d="M218.9,641.6c7,4.9,36.3,6.4,36.3,6.4s-11.5-27-18.5-31.9c-7-5-16.7-3.4-21.7,3.5s-3.4,16.7,3.5,21.7
		C218.7,641.5,218.8,641.6,218.9,641.6L218.9,641.6z"/>
	<path class="st12" d="M202.6,712c6.1,6,34.7,12.5,34.7,12.5s-6.8-28.5-12.9-34.5c-6-6.1-15.8-6.2-22-0.2c-6.1,6-6.2,15.8-0.2,22
		C202.3,711.8,202.5,711.9,202.6,712L202.6,712z"/>
	<path class="st11" d="M239.3,758.7c0,0-38.8-61.8-29.3-118c4.2-23.5,0.6-47.8-10.2-69.2c-5.2-10.1-11.3-19.7-18.3-28.7"/>
	<path class="st5" d="M187.3,507.4c2.3,8.3-5.9,36.4-5.9,36.4s-21.7-19.7-24-28s2.5-16.8,10.7-19.2
		C176.4,494.3,185,499.1,187.3,507.4L187.3,507.4z"/>
	<path class="st5" d="M224.9,546.1c-2.5,8.2-24.7,27.4-24.7,27.4s-7.5-28.3-5-36.5s11.2-12.8,19.4-10.3S227.4,537.9,224.9,546.1
		L224.9,546.1z"/>
	<path class="st5" d="M245.9,624.6c-6.3,5.8-35.2,11.2-35.2,11.2s7.8-28.2,14.2-34c6.3-5.8,16.2-5.4,22,1S252.2,618.8,245.9,624.6
		L245.9,624.6z"/>
	<path class="st5" d="M248.4,687.5c-5.2,6.8-32.8,16.9-32.8,16.9s3-29.2,8.2-36c5.1-6.9,14.8-8.4,21.7-3.3
		c6.9,5.1,8.4,14.8,3.3,21.7C248.7,687,248.5,687.2,248.4,687.5L248.4,687.5z"/>
	<path class="st5" d="M169.3,583.9c7.5,4.1,36.8,2.3,36.8,2.3s-14.5-25.5-22-29.6s-17-1.3-21.1,6.3S161.7,579.9,169.3,583.9z"/>
	<path class="st5" d="M173.1,657.5c8.4,1.6,35.8-8.8,35.8-8.8s-21.5-20-29.9-21.6c-8.4-1.8-16.7,3.5-18.5,11.8
		c-1.8,8.4,3.5,16.7,11.8,18.5C172.7,657.4,172.9,657.5,173.1,657.5z"/>
	<path class="st5" d="M186.7,728.5c8,3,36.8-2.7,36.8-2.7s-17.8-23.3-25.8-26.4c-8.2-2.6-16.9,1.9-19.5,10.1
		C175.7,717.1,179.4,725.2,186.7,728.5L186.7,728.5z"/>
</g>
<path class="st1" d="M825.9,6.7v21.1H20.2V6.7c0-3.4,2.8-6.2,6.2-6.2l0,0h793.2C823.1,0.5,825.9,3.2,825.9,6.7L825.9,6.7z"/>
</svg>
